<svg xmlns="http://www.w3.org/2000/svg" xmlns:xlink="http://www.w3.org/1999/xlink" width="500" zoomAndPan="magnify" viewBox="0 0 375 374.999991" height="500" preserveAspectRatio="xMidYMid meet" version="1.0"><defs><g/></defs><g fill="#000000" fill-opacity="1"><g transform="translate(120.411506, 149.598431)"><g><path d="M 40.140625 -20.890625 C 39.566406 -18.984375 38.9375 -17.175781 38.25 -15.46875 C 37.5625 -13.757812 36.90625 -12.242188 36.28125 -10.921875 C 35.570312 -9.390625 34.859375 -7.96875 34.140625 -6.65625 C 33.546875 -5.625 33.050781 -4.722656 32.65625 -3.953125 C 32.257812 -3.179688 31.941406 -2.523438 31.703125 -1.984375 C 31.460938 -1.441406 31.289062 -0.988281 31.1875 -0.625 C 31.082031 -0.269531 31.03125 0.0234375 31.03125 0.265625 C 31.03125 0.503906 31.082031 0.6875 31.1875 0.8125 C 31.289062 0.945312 31.414062 1.046875 31.5625 1.109375 C 31.707031 1.179688 31.847656 1.222656 31.984375 1.234375 C 32.128906 1.253906 32.25 1.265625 32.34375 1.265625 C 32.75 1.265625 33.226562 1.15625 33.78125 0.9375 C 34.332031 0.71875 34.929688 0.40625 35.578125 0 C 36.234375 -0.414062 36.914062 -0.910156 37.625 -1.484375 C 38.332031 -2.066406 39.035156 -2.71875 39.734375 -3.4375 C 40.441406 -4.164062 41.125 -4.945312 41.78125 -5.78125 C 42.4375 -6.625 43.039062 -7.519531 43.59375 -8.46875 C 44.476562 -10 45.1875 -11.421875 45.71875 -12.734375 C 45.382812 -13.390625 45.132812 -14.0625 44.96875 -14.75 C 44.8125 -15.445312 44.734375 -16.101562 44.734375 -16.71875 C 44.734375 -17.613281 44.875 -18.332031 45.15625 -18.875 C 45.4375 -19.414062 45.828125 -19.6875 46.328125 -19.6875 C 46.609375 -19.6875 46.84375 -19.613281 47.03125 -19.46875 C 47.21875 -19.332031 47.367188 -19.15625 47.484375 -18.9375 C 47.597656 -18.71875 47.679688 -18.476562 47.734375 -18.21875 C 47.785156 -17.96875 47.8125 -17.71875 47.8125 -17.46875 C 47.8125 -16.925781 47.734375 -16.304688 47.578125 -15.609375 C 47.421875 -14.910156 47.195312 -14.15625 46.90625 -13.34375 C 46.613281 -12.53125 46.253906 -11.671875 45.828125 -10.765625 C 45.410156 -9.867188 44.925781 -8.953125 44.375 -8.015625 C 43.820312 -7.078125 43.207031 -6.175781 42.53125 -5.3125 C 41.863281 -4.445312 41.164062 -3.632812 40.4375 -2.875 C 39.707031 -2.113281 38.96875 -1.421875 38.21875 -0.796875 C 37.46875 -0.171875 36.738281 0.359375 36.03125 0.796875 C 35.320312 1.242188 34.648438 1.585938 34.015625 1.828125 C 33.378906 2.078125 32.820312 2.203125 32.34375 2.203125 C 31.4375 2.203125 30.722656 1.992188 30.203125 1.578125 C 29.691406 1.171875 29.4375 0.515625 29.4375 -0.390625 C 29.4375 -0.890625 29.5 -1.382812 29.625 -1.875 C 29.757812 -2.363281 29.957031 -2.894531 30.21875 -3.46875 C 30.476562 -4.039062 30.796875 -4.664062 31.171875 -5.34375 C 31.546875 -6.03125 31.984375 -6.804688 32.484375 -7.671875 C 31.335938 -6.148438 30.097656 -4.671875 28.765625 -3.234375 C 27.441406 -1.804688 26.03125 -0.535156 24.53125 0.578125 C 23.851562 1.085938 23.234375 1.507812 22.671875 1.84375 C 22.109375 2.1875 21.59375 2.457031 21.125 2.65625 C 20.664062 2.863281 20.242188 3.007812 19.859375 3.09375 C 19.484375 3.1875 19.144531 3.234375 18.84375 3.234375 C 18.394531 3.234375 18.003906 3.171875 17.671875 3.046875 C 17.347656 2.921875 17.078125 2.75 16.859375 2.53125 C 16.648438 2.320312 16.5 2.070312 16.40625 1.78125 C 16.3125 1.488281 16.265625 1.171875 16.265625 0.828125 C 16.265625 0.253906 16.347656 -0.285156 16.515625 -0.796875 C 16.691406 -1.316406 16.941406 -1.847656 17.265625 -2.390625 C 17.648438 -2.984375 18.101562 -3.640625 18.625 -4.359375 C 19.144531 -5.085938 19.6875 -5.847656 20.25 -6.640625 C 20.820312 -7.429688 21.382812 -8.238281 21.9375 -9.0625 C 22.5 -9.894531 23 -10.71875 23.4375 -11.53125 C 23.882812 -12.34375 24.238281 -13.128906 24.5 -13.890625 C 24.769531 -14.660156 24.90625 -15.382812 24.90625 -16.0625 C 24.90625 -17.132812 24.695312 -18.109375 24.28125 -18.984375 C 23.863281 -19.867188 23.265625 -20.625 22.484375 -21.25 C 21.703125 -21.882812 20.757812 -22.375 19.65625 -22.71875 C 18.550781 -23.070312 17.3125 -23.25 15.9375 -23.25 C 14.039062 -23.25 12.300781 -22.972656 10.71875 -22.421875 C 9.132812 -21.867188 7.769531 -21.109375 6.625 -20.140625 C 5.488281 -19.171875 4.601562 -18.03125 3.96875 -16.71875 C 3.332031 -15.40625 3.015625 -13.988281 3.015625 -12.46875 C 3.015625 -11.539062 3.160156 -10.695312 3.453125 -9.9375 C 3.742188 -9.175781 4.15625 -8.519531 4.6875 -7.96875 C 5.21875 -7.414062 5.863281 -6.988281 6.625 -6.6875 C 7.394531 -6.382812 8.25 -6.234375 9.1875 -6.234375 C 10.28125 -6.234375 11.289062 -6.421875 12.21875 -6.796875 C 13.144531 -7.179688 13.988281 -7.707031 14.75 -8.375 C 15.507812 -9.039062 16.1875 -9.820312 16.78125 -10.71875 C 17.382812 -11.625 17.894531 -12.59375 18.3125 -13.625 L 19.078125 -13.34375 C 17.960938 -10.582031 16.488281 -8.492188 14.65625 -7.078125 C 12.820312 -5.660156 10.644531 -4.953125 8.125 -4.953125 C 7.050781 -4.953125 6.078125 -5.128906 5.203125 -5.484375 C 4.335938 -5.847656 3.59375 -6.351562 2.96875 -7 C 2.351562 -7.65625 1.875 -8.429688 1.53125 -9.328125 C 1.195312 -10.234375 1.03125 -11.222656 1.03125 -12.296875 C 1.03125 -13.753906 1.269531 -15.0625 1.75 -16.21875 C 2.238281 -17.382812 2.878906 -18.40625 3.671875 -19.28125 C 4.472656 -20.15625 5.378906 -20.898438 6.390625 -21.515625 C 7.398438 -22.140625 8.4375 -22.644531 9.5 -23.03125 C 10.570312 -23.425781 11.617188 -23.710938 12.640625 -23.890625 C 13.660156 -24.066406 14.578125 -24.15625 15.390625 -24.15625 C 16.929688 -24.15625 18.351562 -23.96875 19.65625 -23.59375 C 20.96875 -23.21875 22.101562 -22.660156 23.0625 -21.921875 C 24.019531 -21.179688 24.765625 -20.265625 25.296875 -19.171875 C 25.835938 -18.085938 26.109375 -16.828125 26.109375 -15.390625 C 26.109375 -14.347656 25.910156 -13.191406 25.515625 -11.921875 C 25.117188 -10.660156 24.4375 -9.300781 23.46875 -7.84375 C 22.570312 -6.5 21.753906 -5.332031 21.015625 -4.34375 C 20.285156 -3.363281 19.660156 -2.515625 19.140625 -1.796875 C 18.617188 -1.078125 18.210938 -0.476562 17.921875 0 C 17.640625 0.476562 17.5 0.878906 17.5 1.203125 C 17.5 1.535156 17.617188 1.804688 17.859375 2.015625 C 18.097656 2.222656 18.429688 2.328125 18.859375 2.328125 C 19.460938 2.328125 20.195312 2.117188 21.0625 1.703125 C 21.925781 1.285156 22.898438 0.675781 23.984375 -0.125 C 25.046875 -0.914062 26.0625 -1.785156 27.03125 -2.734375 C 28 -3.679688 28.914062 -4.671875 29.78125 -5.703125 C 30.65625 -6.734375 31.472656 -7.78125 32.234375 -8.84375 C 33.003906 -9.90625 33.71875 -10.945312 34.375 -11.96875 C 35.03125 -13 35.625 -13.992188 36.15625 -14.953125 C 36.695312 -15.910156 37.171875 -16.796875 37.578125 -17.609375 C 37.992188 -18.421875 38.347656 -19.140625 38.640625 -19.765625 C 38.929688 -20.390625 39.148438 -20.878906 39.296875 -21.234375 Z M 46.171875 -13.921875 C 46.441406 -14.648438 46.632812 -15.3125 46.75 -15.90625 C 46.863281 -16.507812 46.921875 -17.019531 46.921875 -17.4375 C 46.921875 -17.519531 46.914062 -17.640625 46.90625 -17.796875 C 46.90625 -17.953125 46.882812 -18.097656 46.84375 -18.234375 C 46.800781 -18.378906 46.738281 -18.503906 46.65625 -18.609375 C 46.570312 -18.722656 46.460938 -18.78125 46.328125 -18.78125 C 46.128906 -18.78125 45.960938 -18.585938 45.828125 -18.203125 C 45.703125 -17.816406 45.640625 -17.34375 45.640625 -16.78125 C 45.640625 -16.351562 45.679688 -15.894531 45.765625 -15.40625 C 45.847656 -14.914062 45.984375 -14.421875 46.171875 -13.921875 Z M 46.171875 -13.921875 "/></g></g></g><g fill="#000000" fill-opacity="1"><g transform="translate(168.208233, 149.598431)"><g><path d="M 1.3125 -3.921875 C 1.28125 -3.785156 1.257812 -3.644531 1.25 -3.5 C 1.238281 -3.363281 1.234375 -3.226562 1.234375 -3.09375 C 1.234375 -2.6875 1.289062 -2.296875 1.40625 -1.921875 C 1.53125 -1.546875 1.710938 -1.21875 1.953125 -0.9375 C 2.191406 -0.65625 2.484375 -0.429688 2.828125 -0.265625 C 3.179688 -0.109375 3.582031 -0.03125 4.03125 -0.03125 C 5.53125 -0.03125 6.976562 -0.539062 8.375 -1.5625 C 9.78125 -2.582031 11.175781 -4.203125 12.5625 -6.421875 L 13.140625 -5.90625 C 12.390625 -4.644531 11.625 -3.578125 10.84375 -2.703125 C 10.0625 -1.835938 9.28125 -1.132812 8.5 -0.59375 C 7.726562 -0.0625 6.96875 0.320312 6.21875 0.5625 C 5.476562 0.800781 4.769531 0.921875 4.09375 0.921875 C 3.601562 0.921875 3.082031 0.851562 2.53125 0.71875 C 1.976562 0.582031 1.46875 0.351562 1 0.03125 C 0.539062 -0.289062 0.160156 -0.71875 -0.140625 -1.25 C -0.453125 -1.789062 -0.609375 -2.460938 -0.609375 -3.265625 C -0.609375 -4.128906 -0.457031 -4.957031 -0.15625 -5.75 C 0.132812 -6.550781 0.515625 -7.296875 0.984375 -7.984375 C 1.453125 -8.671875 1.988281 -9.296875 2.59375 -9.859375 C 3.207031 -10.429688 3.828125 -10.914062 4.453125 -11.3125 C 5.078125 -11.71875 5.6875 -12.03125 6.28125 -12.25 C 6.875 -12.476562 7.398438 -12.59375 7.859375 -12.59375 C 8.160156 -12.59375 8.460938 -12.546875 8.765625 -12.453125 C 9.078125 -12.359375 9.359375 -12.210938 9.609375 -12.015625 C 9.859375 -11.828125 10.054688 -11.570312 10.203125 -11.25 C 10.359375 -10.925781 10.4375 -10.539062 10.4375 -10.09375 C 10.4375 -9.488281 10.296875 -8.921875 10.015625 -8.390625 C 9.734375 -7.859375 9.359375 -7.363281 8.890625 -6.90625 C 8.421875 -6.457031 7.875 -6.050781 7.25 -5.6875 C 6.632812 -5.320312 5.988281 -5.015625 5.3125 -4.765625 C 4.632812 -4.515625 3.953125 -4.3125 3.265625 -4.15625 C 2.578125 -4.007812 1.925781 -3.929688 1.3125 -3.921875 Z M 1.4375 -4.65625 C 2.207031 -4.738281 2.929688 -4.898438 3.609375 -5.140625 C 4.285156 -5.378906 4.90625 -5.675781 5.46875 -6.03125 C 6.03125 -6.382812 6.53125 -6.765625 6.96875 -7.171875 C 7.414062 -7.585938 7.785156 -8.003906 8.078125 -8.421875 C 8.378906 -8.847656 8.609375 -9.253906 8.765625 -9.640625 C 8.929688 -10.035156 9.015625 -10.390625 9.015625 -10.703125 C 9.015625 -11.015625 8.929688 -11.257812 8.765625 -11.4375 C 8.597656 -11.625 8.398438 -11.71875 8.171875 -11.71875 C 7.671875 -11.71875 7.101562 -11.535156 6.46875 -11.171875 C 5.832031 -10.804688 5.195312 -10.304688 4.5625 -9.671875 C 3.9375 -9.035156 3.347656 -8.285156 2.796875 -7.421875 C 2.242188 -6.566406 1.789062 -5.644531 1.4375 -4.65625 Z M 1.4375 -4.65625 "/></g></g></g><g fill="#000000" fill-opacity="1"><g transform="translate(180.763688, 149.598431)"><g><path d="M 12.453125 -25.03125 C 12.859375 -25.03125 13.191406 -24.929688 13.453125 -24.734375 C 13.722656 -24.546875 13.859375 -24.191406 13.859375 -23.671875 C 13.859375 -23.316406 13.785156 -22.890625 13.640625 -22.390625 C 13.503906 -21.898438 13.3125 -21.363281 13.0625 -20.78125 C 12.820312 -20.207031 12.535156 -19.601562 12.203125 -18.96875 C 11.867188 -18.332031 11.507812 -17.695312 11.125 -17.0625 C 10.738281 -16.4375 10.335938 -15.820312 9.921875 -15.21875 C 9.503906 -14.625 9.085938 -14.078125 8.671875 -13.578125 C 7.847656 -12.554688 7.132812 -11.691406 6.53125 -10.984375 C 5.925781 -10.285156 5.40625 -9.691406 4.96875 -9.203125 C 4.53125 -8.722656 4.160156 -8.328125 3.859375 -8.015625 C 3.566406 -7.710938 3.304688 -7.453125 3.078125 -7.234375 C 2.847656 -7.023438 2.632812 -6.828125 2.4375 -6.640625 C 2.25 -6.460938 2.050781 -6.269531 1.84375 -6.0625 C 1.75 -5.625 1.703125 -5.207031 1.703125 -4.8125 C 1.710938 -4.414062 1.71875 -4.050781 1.71875 -3.71875 C 1.71875 -2.71875 1.878906 -1.976562 2.203125 -1.5 C 2.523438 -1.019531 2.976562 -0.78125 3.5625 -0.78125 C 3.945312 -0.78125 4.335938 -0.878906 4.734375 -1.078125 C 5.128906 -1.273438 5.519531 -1.535156 5.90625 -1.859375 C 6.300781 -2.179688 6.679688 -2.546875 7.046875 -2.953125 C 7.421875 -3.359375 7.769531 -3.769531 8.09375 -4.1875 C 8.414062 -4.601562 8.707031 -5.003906 8.96875 -5.390625 C 9.238281 -5.785156 9.472656 -6.128906 9.671875 -6.421875 L 10.3125 -5.9375 C 10.269531 -5.882812 10.15625 -5.703125 9.96875 -5.390625 C 9.78125 -5.078125 9.53125 -4.695312 9.21875 -4.25 C 8.90625 -3.800781 8.535156 -3.320312 8.109375 -2.8125 C 7.691406 -2.300781 7.234375 -1.828125 6.734375 -1.390625 C 6.242188 -0.953125 5.726562 -0.585938 5.1875 -0.296875 C 4.644531 -0.015625 4.09375 0.125 3.53125 0.125 C 3.0625 0.125 2.609375 0.0351562 2.171875 -0.140625 C 1.742188 -0.316406 1.363281 -0.597656 1.03125 -0.984375 C 0.707031 -1.367188 0.445312 -1.859375 0.25 -2.453125 C 0.0507812 -3.054688 -0.046875 -3.773438 -0.046875 -4.609375 C -0.046875 -5.648438 0.0703125 -6.738281 0.3125 -7.875 C 0.5625 -9.019531 0.898438 -10.171875 1.328125 -11.328125 C 1.753906 -12.484375 2.253906 -13.625 2.828125 -14.75 C 3.398438 -15.875 4.007812 -16.941406 4.65625 -17.953125 C 5.300781 -18.960938 5.972656 -19.898438 6.671875 -20.765625 C 7.378906 -21.640625 8.078125 -22.390625 8.765625 -23.015625 C 9.453125 -23.648438 10.109375 -24.144531 10.734375 -24.5 C 11.367188 -24.851562 11.941406 -25.03125 12.453125 -25.03125 Z M 2.15625 -7.59375 C 3.125 -8.59375 4.0625 -9.613281 4.96875 -10.65625 C 5.882812 -11.695312 6.738281 -12.722656 7.53125 -13.734375 C 8.332031 -14.753906 9.066406 -15.742188 9.734375 -16.703125 C 10.398438 -17.660156 10.96875 -18.5625 11.4375 -19.40625 C 11.90625 -20.25 12.269531 -21.019531 12.53125 -21.71875 C 12.800781 -22.425781 12.9375 -23.03125 12.9375 -23.53125 C 12.9375 -23.625 12.890625 -23.75 12.796875 -23.90625 C 12.703125 -24.0625 12.59375 -24.140625 12.46875 -24.140625 C 12.113281 -24.140625 11.644531 -23.90625 11.0625 -23.4375 C 10.476562 -22.96875 9.84375 -22.328125 9.15625 -21.515625 C 8.476562 -20.703125 7.773438 -19.753906 7.046875 -18.671875 C 6.316406 -17.597656 5.628906 -16.445312 4.984375 -15.21875 C 4.347656 -14 3.773438 -12.734375 3.265625 -11.421875 C 2.765625 -10.117188 2.394531 -8.84375 2.15625 -7.59375 Z M 2.15625 -7.59375 "/></g></g></g><g fill="#000000" fill-opacity="1"><g transform="translate(190.429668, 149.598431)"><g><path d="M 9.703125 -10.4375 C 9.773438 -10.625 9.8125 -10.820312 9.8125 -11.03125 C 9.8125 -11.394531 9.660156 -11.679688 9.359375 -11.890625 C 9.066406 -12.109375 8.609375 -12.21875 7.984375 -12.21875 C 7.460938 -12.21875 6.941406 -12.101562 6.421875 -11.875 C 5.898438 -11.65625 5.398438 -11.347656 4.921875 -10.953125 C 4.441406 -10.566406 3.988281 -10.101562 3.5625 -9.5625 C 3.144531 -9.019531 2.785156 -8.429688 2.484375 -7.796875 C 2.179688 -7.171875 1.941406 -6.503906 1.765625 -5.796875 C 1.585938 -5.097656 1.5 -4.394531 1.5 -3.6875 C 1.5 -3.113281 1.5625 -2.625 1.6875 -2.21875 C 1.8125 -1.820312 1.988281 -1.492188 2.21875 -1.234375 C 2.445312 -0.984375 2.722656 -0.800781 3.046875 -0.6875 C 3.367188 -0.582031 3.726562 -0.53125 4.125 -0.53125 C 4.914062 -0.53125 5.679688 -0.707031 6.421875 -1.0625 C 7.171875 -1.414062 7.878906 -1.875 8.546875 -2.4375 C 9.222656 -3.007812 9.84375 -3.644531 10.40625 -4.34375 C 10.976562 -5.050781 11.484375 -5.742188 11.921875 -6.421875 L 12.5625 -5.9375 C 11.9375 -4.894531 11.273438 -3.976562 10.578125 -3.1875 C 9.878906 -2.40625 9.160156 -1.75 8.421875 -1.21875 C 7.691406 -0.695312 6.945312 -0.300781 6.1875 -0.03125 C 5.4375 0.226562 4.695312 0.359375 3.96875 0.359375 C 3.394531 0.359375 2.847656 0.269531 2.328125 0.09375 C 1.804688 -0.0703125 1.347656 -0.328125 0.953125 -0.671875 C 0.554688 -1.023438 0.238281 -1.476562 0 -2.03125 C -0.226562 -2.582031 -0.34375 -3.234375 -0.34375 -3.984375 C -0.34375 -4.878906 -0.210938 -5.722656 0.046875 -6.515625 C 0.304688 -7.316406 0.648438 -8.054688 1.078125 -8.734375 C 1.503906 -9.410156 2 -10.019531 2.5625 -10.5625 C 3.125 -11.113281 3.710938 -11.578125 4.328125 -11.953125 C 4.941406 -12.335938 5.5625 -12.628906 6.1875 -12.828125 C 6.8125 -13.023438 7.398438 -13.125 7.953125 -13.125 C 8.515625 -13.125 8.972656 -13.046875 9.328125 -12.890625 C 9.679688 -12.734375 9.960938 -12.546875 10.171875 -12.328125 C 10.378906 -12.117188 10.519531 -11.890625 10.59375 -11.640625 C 10.664062 -11.398438 10.703125 -11.195312 10.703125 -11.03125 C 10.703125 -10.75 10.660156 -10.453125 10.578125 -10.140625 C 10.492188 -9.835938 10.378906 -9.554688 10.234375 -9.296875 C 10.097656 -9.035156 9.921875 -8.816406 9.703125 -8.640625 C 9.492188 -8.472656 9.265625 -8.390625 9.015625 -8.390625 C 8.765625 -8.390625 8.546875 -8.472656 8.359375 -8.640625 C 8.179688 -8.804688 8.09375 -9.015625 8.09375 -9.265625 C 8.09375 -9.285156 8.097656 -9.359375 8.109375 -9.484375 C 8.128906 -9.609375 8.179688 -9.738281 8.265625 -9.875 C 8.359375 -10.019531 8.5 -10.148438 8.6875 -10.265625 C 8.882812 -10.378906 9.15625 -10.4375 9.5 -10.4375 Z M 9.703125 -10.4375 "/></g></g></g><g fill="#000000" fill-opacity="1"><g transform="translate(202.348755, 149.598431)"><g><path d="M 9.703125 -4.671875 C 9.742188 -4.660156 9.785156 -4.65625 9.828125 -4.65625 C 9.878906 -4.65625 9.9375 -4.65625 10 -4.65625 C 10.320312 -4.65625 10.613281 -4.6875 10.875 -4.75 C 11.132812 -4.820312 11.375 -4.925781 11.59375 -5.0625 C 11.820312 -5.195312 12.039062 -5.375 12.25 -5.59375 C 12.457031 -5.820312 12.660156 -6.097656 12.859375 -6.421875 L 13.46875 -5.9375 C 12.914062 -5.15625 12.347656 -4.609375 11.765625 -4.296875 C 11.179688 -3.992188 10.5625 -3.84375 9.90625 -3.84375 C 9.664062 -3.84375 9.453125 -3.863281 9.265625 -3.90625 C 8.773438 -3.082031 8.25 -2.378906 7.6875 -1.796875 C 7.125 -1.210938 6.550781 -0.738281 5.96875 -0.375 C 5.382812 -0.0078125 4.804688 0.253906 4.234375 0.421875 C 3.660156 0.585938 3.125 0.671875 2.625 0.671875 C 2.125 0.671875 1.65625 0.582031 1.21875 0.40625 C 0.789062 0.226562 0.421875 -0.0234375 0.109375 -0.359375 C -0.191406 -0.691406 -0.425781 -1.085938 -0.59375 -1.546875 C -0.769531 -2.003906 -0.859375 -2.519531 -0.859375 -3.09375 C -0.859375 -3.664062 -0.765625 -4.25 -0.578125 -4.84375 C -0.398438 -5.445312 -0.15625 -6.039062 0.15625 -6.625 C 0.476562 -7.207031 0.847656 -7.769531 1.265625 -8.3125 C 1.691406 -8.863281 2.148438 -9.375 2.640625 -9.84375 C 3.140625 -10.3125 3.648438 -10.734375 4.171875 -11.109375 C 4.703125 -11.492188 5.234375 -11.804688 5.765625 -12.046875 L 6.3125 -11.328125 C 5.707031 -10.890625 5.09375 -10.335938 4.46875 -9.671875 C 3.84375 -9.003906 3.273438 -8.273438 2.765625 -7.484375 C 2.253906 -6.691406 1.832031 -5.867188 1.5 -5.015625 C 1.175781 -4.160156 1.015625 -3.332031 1.015625 -2.53125 C 1.015625 -1.800781 1.175781 -1.238281 1.5 -0.84375 C 1.820312 -0.457031 2.304688 -0.265625 2.953125 -0.265625 C 3.460938 -0.265625 3.960938 -0.363281 4.453125 -0.5625 C 4.953125 -0.769531 5.4375 -1.050781 5.90625 -1.40625 C 6.375 -1.757812 6.820312 -2.179688 7.25 -2.671875 C 7.6875 -3.160156 8.101562 -3.679688 8.5 -4.234375 C 8.164062 -4.429688 7.875 -4.691406 7.625 -5.015625 C 7.375 -5.335938 7.160156 -5.707031 6.984375 -6.125 C 6.816406 -6.550781 6.6875 -7.003906 6.59375 -7.484375 C 6.507812 -7.960938 6.46875 -8.457031 6.46875 -8.96875 C 6.46875 -9.46875 6.53125 -9.941406 6.65625 -10.390625 C 6.78125 -10.835938 6.953125 -11.226562 7.171875 -11.5625 C 7.398438 -11.90625 7.660156 -12.171875 7.953125 -12.359375 C 8.253906 -12.554688 8.585938 -12.65625 8.953125 -12.65625 C 9.265625 -12.65625 9.546875 -12.570312 9.796875 -12.40625 C 10.054688 -12.238281 10.269531 -12.007812 10.4375 -11.71875 C 10.613281 -11.425781 10.742188 -11.078125 10.828125 -10.671875 C 10.921875 -10.273438 10.96875 -9.847656 10.96875 -9.390625 C 10.96875 -9.046875 10.9375 -8.664062 10.875 -8.25 C 10.820312 -7.84375 10.742188 -7.425781 10.640625 -7 C 10.535156 -6.582031 10.40625 -6.171875 10.25 -5.765625 C 10.09375 -5.359375 9.910156 -4.992188 9.703125 -4.671875 Z M 7.359375 -8.96875 C 7.359375 -8.632812 7.382812 -8.269531 7.4375 -7.875 C 7.5 -7.488281 7.59375 -7.109375 7.71875 -6.734375 C 7.84375 -6.367188 8.003906 -6.03125 8.203125 -5.71875 C 8.398438 -5.40625 8.640625 -5.15625 8.921875 -4.96875 C 9.128906 -5.375 9.304688 -5.785156 9.453125 -6.203125 C 9.597656 -6.617188 9.71875 -7.019531 9.8125 -7.40625 C 9.914062 -7.800781 9.984375 -8.164062 10.015625 -8.5 C 10.054688 -8.84375 10.078125 -9.140625 10.078125 -9.390625 C 10.078125 -9.734375 10.046875 -10.046875 9.984375 -10.328125 C 9.929688 -10.617188 9.859375 -10.867188 9.765625 -11.078125 C 9.671875 -11.296875 9.550781 -11.460938 9.40625 -11.578125 C 9.257812 -11.703125 9.097656 -11.765625 8.921875 -11.765625 C 8.691406 -11.765625 8.476562 -11.6875 8.28125 -11.53125 C 8.09375 -11.375 7.929688 -11.164062 7.796875 -10.90625 C 7.660156 -10.65625 7.550781 -10.359375 7.46875 -10.015625 C 7.394531 -9.679688 7.359375 -9.332031 7.359375 -8.96875 Z M 7.359375 -8.96875 "/></g></g></g><g fill="#000000" fill-opacity="1"><g transform="translate(215.196601, 149.598431)"><g><path d="M 14.3125 -9.359375 C 14.644531 -9.742188 14.988281 -10.101562 15.34375 -10.4375 C 15.695312 -10.769531 16.050781 -11.054688 16.40625 -11.296875 C 16.769531 -11.546875 17.125 -11.734375 17.46875 -11.859375 C 17.820312 -11.992188 18.160156 -12.0625 18.484375 -12.0625 C 18.734375 -12.0625 18.976562 -12.015625 19.21875 -11.921875 C 19.46875 -11.835938 19.691406 -11.707031 19.890625 -11.53125 C 20.085938 -11.351562 20.242188 -11.125 20.359375 -10.84375 C 20.472656 -10.570312 20.53125 -10.25 20.53125 -9.875 C 20.53125 -9.320312 20.453125 -8.78125 20.296875 -8.25 C 20.148438 -7.71875 19.960938 -7.195312 19.734375 -6.6875 C 19.503906 -6.1875 19.257812 -5.703125 19 -5.234375 C 18.738281 -4.765625 18.492188 -4.3125 18.265625 -3.875 C 18.035156 -3.445312 17.847656 -3.039062 17.703125 -2.65625 C 17.554688 -2.269531 17.484375 -1.914062 17.484375 -1.59375 C 17.484375 -1.34375 17.546875 -1.160156 17.671875 -1.046875 C 17.804688 -0.941406 17.945312 -0.890625 18.09375 -0.890625 C 18.394531 -0.890625 18.75 -1.0625 19.15625 -1.40625 C 19.5625 -1.75 19.988281 -2.191406 20.4375 -2.734375 C 20.882812 -3.273438 21.332031 -3.867188 21.78125 -4.515625 C 22.238281 -5.160156 22.675781 -5.796875 23.09375 -6.421875 L 23.703125 -5.9375 C 23.554688 -5.695312 23.363281 -5.378906 23.125 -4.984375 C 22.894531 -4.585938 22.625 -4.160156 22.3125 -3.703125 C 22 -3.253906 21.660156 -2.796875 21.296875 -2.328125 C 20.929688 -1.867188 20.546875 -1.453125 20.140625 -1.078125 C 19.734375 -0.703125 19.3125 -0.394531 18.875 -0.15625 C 18.4375 0.0703125 18 0.1875 17.5625 0.1875 C 17.320312 0.1875 17.085938 0.148438 16.859375 0.078125 C 16.640625 0.015625 16.441406 -0.09375 16.265625 -0.25 C 16.097656 -0.40625 15.960938 -0.609375 15.859375 -0.859375 C 15.753906 -1.109375 15.703125 -1.421875 15.703125 -1.796875 C 15.703125 -2.296875 15.785156 -2.785156 15.953125 -3.265625 C 16.128906 -3.742188 16.347656 -4.21875 16.609375 -4.6875 C 16.878906 -5.164062 17.164062 -5.632812 17.46875 -6.09375 C 17.769531 -6.5625 18.050781 -7.023438 18.3125 -7.484375 C 18.582031 -7.941406 18.800781 -8.398438 18.96875 -8.859375 C 19.144531 -9.328125 19.234375 -9.800781 19.234375 -10.28125 C 19.234375 -10.53125 19.1875 -10.722656 19.09375 -10.859375 C 19 -11.003906 18.828125 -11.078125 18.578125 -11.078125 C 18.179688 -11.078125 17.757812 -10.910156 17.3125 -10.578125 C 16.863281 -10.253906 16.394531 -9.816406 15.90625 -9.265625 C 15.425781 -8.722656 14.929688 -8.085938 14.421875 -7.359375 C 13.921875 -6.628906 13.421875 -5.859375 12.921875 -5.046875 C 12.429688 -4.242188 11.941406 -3.425781 11.453125 -2.59375 C 10.960938 -1.757812 10.492188 -0.957031 10.046875 -0.1875 L 8.609375 -0.953125 C 9.210938 -2.203125 9.78125 -3.316406 10.3125 -4.296875 C 10.84375 -5.285156 11.304688 -6.175781 11.703125 -6.96875 C 12.109375 -7.769531 12.425781 -8.5 12.65625 -9.15625 C 12.882812 -9.820312 13 -10.445312 13 -11.03125 C 13 -11.144531 12.988281 -11.257812 12.96875 -11.375 C 12.945312 -11.5 12.898438 -11.609375 12.828125 -11.703125 C 12.765625 -11.796875 12.675781 -11.875 12.5625 -11.9375 C 12.457031 -12 12.316406 -12.03125 12.140625 -12.03125 C 11.753906 -12.03125 11.359375 -11.847656 10.953125 -11.484375 C 10.554688 -11.117188 10.132812 -10.625 9.6875 -10 C 9.238281 -9.375 8.757812 -8.644531 8.25 -7.8125 C 7.738281 -6.988281 7.1875 -6.109375 6.59375 -5.171875 C 6.007812 -4.242188 5.367188 -3.289062 4.671875 -2.3125 C 3.984375 -1.332031 3.234375 -0.382812 2.421875 0.53125 L 1.234375 -0.265625 C 1.609375 -0.804688 2 -1.382812 2.40625 -2 C 2.8125 -2.613281 3.210938 -3.234375 3.609375 -3.859375 C 4.003906 -4.492188 4.378906 -5.125 4.734375 -5.75 C 5.097656 -6.375 5.414062 -6.96875 5.6875 -7.53125 C 5.96875 -8.09375 6.1875 -8.609375 6.34375 -9.078125 C 6.507812 -9.554688 6.59375 -9.957031 6.59375 -10.28125 C 6.59375 -10.675781 6.492188 -10.957031 6.296875 -11.125 C 6.097656 -11.300781 5.847656 -11.390625 5.546875 -11.390625 C 5.171875 -11.390625 4.804688 -11.253906 4.453125 -10.984375 C 4.109375 -10.722656 3.742188 -10.351562 3.359375 -9.875 C 2.972656 -9.394531 2.5625 -8.816406 2.125 -8.140625 C 1.6875 -7.472656 1.1875 -6.738281 0.625 -5.9375 L 0 -6.421875 C 0.601562 -7.378906 1.148438 -8.222656 1.640625 -8.953125 C 2.128906 -9.691406 2.59375 -10.304688 3.03125 -10.796875 C 3.46875 -11.296875 3.898438 -11.671875 4.328125 -11.921875 C 4.753906 -12.171875 5.222656 -12.296875 5.734375 -12.296875 C 5.878906 -12.296875 6.066406 -12.265625 6.296875 -12.203125 C 6.535156 -12.148438 6.769531 -12.050781 7 -11.90625 C 7.226562 -11.757812 7.429688 -11.550781 7.609375 -11.28125 C 7.785156 -11.019531 7.894531 -10.679688 7.9375 -10.265625 C 8.570312 -11.097656 9.238281 -11.757812 9.9375 -12.25 C 10.644531 -12.738281 11.304688 -12.984375 11.921875 -12.984375 C 12.367188 -12.984375 12.742188 -12.894531 13.046875 -12.71875 C 13.359375 -12.539062 13.609375 -12.304688 13.796875 -12.015625 C 13.992188 -11.734375 14.132812 -11.410156 14.21875 -11.046875 C 14.300781 -10.691406 14.34375 -10.332031 14.34375 -9.96875 C 14.34375 -9.875 14.335938 -9.773438 14.328125 -9.671875 C 14.328125 -9.566406 14.320312 -9.460938 14.3125 -9.359375 Z M 14.3125 -9.359375 "/></g></g></g><g fill="#000000" fill-opacity="1"><g transform="translate(238.277998, 149.598431)"><g><path d="M 1.3125 -3.921875 C 1.28125 -3.785156 1.257812 -3.644531 1.25 -3.5 C 1.238281 -3.363281 1.234375 -3.226562 1.234375 -3.09375 C 1.234375 -2.6875 1.289062 -2.296875 1.40625 -1.921875 C 1.53125 -1.546875 1.710938 -1.21875 1.953125 -0.9375 C 2.191406 -0.65625 2.484375 -0.429688 2.828125 -0.265625 C 3.179688 -0.109375 3.582031 -0.03125 4.03125 -0.03125 C 5.53125 -0.03125 6.976562 -0.539062 8.375 -1.5625 C 9.78125 -2.582031 11.175781 -4.203125 12.5625 -6.421875 L 13.140625 -5.90625 C 12.390625 -4.644531 11.625 -3.578125 10.84375 -2.703125 C 10.0625 -1.835938 9.28125 -1.132812 8.5 -0.59375 C 7.726562 -0.0625 6.96875 0.320312 6.21875 0.5625 C 5.476562 0.800781 4.769531 0.921875 4.09375 0.921875 C 3.601562 0.921875 3.082031 0.851562 2.53125 0.71875 C 1.976562 0.582031 1.46875 0.351562 1 0.03125 C 0.539062 -0.289062 0.160156 -0.71875 -0.140625 -1.25 C -0.453125 -1.789062 -0.609375 -2.460938 -0.609375 -3.265625 C -0.609375 -4.128906 -0.457031 -4.957031 -0.15625 -5.75 C 0.132812 -6.550781 0.515625 -7.296875 0.984375 -7.984375 C 1.453125 -8.671875 1.988281 -9.296875 2.59375 -9.859375 C 3.207031 -10.429688 3.828125 -10.914062 4.453125 -11.3125 C 5.078125 -11.71875 5.6875 -12.03125 6.28125 -12.25 C 6.875 -12.476562 7.398438 -12.59375 7.859375 -12.59375 C 8.160156 -12.59375 8.460938 -12.546875 8.765625 -12.453125 C 9.078125 -12.359375 9.359375 -12.210938 9.609375 -12.015625 C 9.859375 -11.828125 10.054688 -11.570312 10.203125 -11.25 C 10.359375 -10.925781 10.4375 -10.539062 10.4375 -10.09375 C 10.4375 -9.488281 10.296875 -8.921875 10.015625 -8.390625 C 9.734375 -7.859375 9.359375 -7.363281 8.890625 -6.90625 C 8.421875 -6.457031 7.875 -6.050781 7.25 -5.6875 C 6.632812 -5.320312 5.988281 -5.015625 5.3125 -4.765625 C 4.632812 -4.515625 3.953125 -4.3125 3.265625 -4.15625 C 2.578125 -4.007812 1.925781 -3.929688 1.3125 -3.921875 Z M 1.4375 -4.65625 C 2.207031 -4.738281 2.929688 -4.898438 3.609375 -5.140625 C 4.285156 -5.378906 4.90625 -5.675781 5.46875 -6.03125 C 6.03125 -6.382812 6.53125 -6.765625 6.96875 -7.171875 C 7.414062 -7.585938 7.785156 -8.003906 8.078125 -8.421875 C 8.378906 -8.847656 8.609375 -9.253906 8.765625 -9.640625 C 8.929688 -10.035156 9.015625 -10.390625 9.015625 -10.703125 C 9.015625 -11.015625 8.929688 -11.257812 8.765625 -11.4375 C 8.597656 -11.625 8.398438 -11.71875 8.171875 -11.71875 C 7.671875 -11.71875 7.101562 -11.535156 6.46875 -11.171875 C 5.832031 -10.804688 5.195312 -10.304688 4.5625 -9.671875 C 3.9375 -9.035156 3.347656 -8.285156 2.796875 -7.421875 C 2.242188 -6.566406 1.789062 -5.644531 1.4375 -4.65625 Z M 1.4375 -4.65625 "/></g></g></g><g fill="#000000" fill-opacity="1"><g transform="translate(150.167872, 185.177433)"><g><path d="M 3.5 -14.1875 C 3.613281 -14.382812 3.816406 -14.722656 4.109375 -15.203125 C 4.398438 -15.691406 4.742188 -16.226562 5.140625 -16.8125 C 5.535156 -17.394531 5.960938 -17.976562 6.421875 -18.5625 C 6.890625 -19.15625 7.347656 -19.660156 7.796875 -20.078125 L 8.5625 -19.609375 C 8.070312 -18.796875 7.566406 -17.929688 7.046875 -17.015625 C 6.535156 -16.109375 6.023438 -15.164062 5.515625 -14.1875 L 11.125 -14.1875 L 10.78125 -13.296875 L 5.0625 -13.296875 C 4.539062 -12.265625 4.050781 -11.238281 3.59375 -10.21875 C 3.144531 -9.195312 2.75 -8.222656 2.40625 -7.296875 C 2.0625 -6.367188 1.789062 -5.5 1.59375 -4.6875 C 1.40625 -3.875 1.3125 -3.171875 1.3125 -2.578125 C 1.3125 -1.835938 1.484375 -1.300781 1.828125 -0.96875 C 2.171875 -0.644531 2.59375 -0.484375 3.09375 -0.484375 C 3.539062 -0.484375 4 -0.617188 4.46875 -0.890625 C 4.9375 -1.160156 5.394531 -1.5 5.84375 -1.90625 C 6.300781 -2.320312 6.734375 -2.773438 7.140625 -3.265625 C 7.554688 -3.765625 7.921875 -4.226562 8.234375 -4.65625 C 8.546875 -5.09375 8.804688 -5.472656 9.015625 -5.796875 C 9.222656 -6.128906 9.347656 -6.335938 9.390625 -6.421875 L 10.03125 -5.9375 C 9.625 -5.269531 9.164062 -4.5625 8.65625 -3.8125 C 8.15625 -3.070312 7.597656 -2.382812 6.984375 -1.75 C 6.378906 -1.113281 5.710938 -0.582031 4.984375 -0.15625 C 4.265625 0.257812 3.488281 0.46875 2.65625 0.46875 C 2.132812 0.46875 1.679688 0.375 1.296875 0.1875 C 0.910156 0 0.585938 -0.253906 0.328125 -0.578125 C 0.0664062 -0.898438 -0.128906 -1.285156 -0.265625 -1.734375 C -0.398438 -2.179688 -0.46875 -2.671875 -0.46875 -3.203125 C -0.46875 -3.546875 -0.410156 -4.03125 -0.296875 -4.65625 C -0.191406 -5.289062 -0.0078125 -6.039062 0.25 -6.90625 C 0.519531 -7.769531 0.875 -8.738281 1.3125 -9.8125 C 1.757812 -10.894531 2.320312 -12.054688 3 -13.296875 L 0.140625 -13.296875 L 0.484375 -14.1875 Z M 3.5 -14.1875 "/></g></g></g><g fill="#000000" fill-opacity="1"><g transform="translate(159.558664, 185.177433)"><g><path d="M 9.703125 -4.671875 C 9.742188 -4.660156 9.785156 -4.65625 9.828125 -4.65625 C 9.878906 -4.65625 9.9375 -4.65625 10 -4.65625 C 10.320312 -4.65625 10.613281 -4.6875 10.875 -4.75 C 11.132812 -4.820312 11.375 -4.925781 11.59375 -5.0625 C 11.820312 -5.195312 12.039062 -5.375 12.25 -5.59375 C 12.457031 -5.820312 12.660156 -6.097656 12.859375 -6.421875 L 13.46875 -5.9375 C 12.914062 -5.15625 12.347656 -4.609375 11.765625 -4.296875 C 11.179688 -3.992188 10.5625 -3.84375 9.90625 -3.84375 C 9.664062 -3.84375 9.453125 -3.863281 9.265625 -3.90625 C 8.773438 -3.082031 8.25 -2.378906 7.6875 -1.796875 C 7.125 -1.210938 6.550781 -0.738281 5.96875 -0.375 C 5.382812 -0.0078125 4.804688 0.253906 4.234375 0.421875 C 3.660156 0.585938 3.125 0.671875 2.625 0.671875 C 2.125 0.671875 1.65625 0.582031 1.21875 0.40625 C 0.789062 0.226562 0.421875 -0.0234375 0.109375 -0.359375 C -0.191406 -0.691406 -0.425781 -1.085938 -0.59375 -1.546875 C -0.769531 -2.003906 -0.859375 -2.519531 -0.859375 -3.09375 C -0.859375 -3.664062 -0.765625 -4.25 -0.578125 -4.84375 C -0.398438 -5.445312 -0.15625 -6.039062 0.15625 -6.625 C 0.476562 -7.207031 0.847656 -7.769531 1.265625 -8.3125 C 1.691406 -8.863281 2.148438 -9.375 2.640625 -9.84375 C 3.140625 -10.3125 3.648438 -10.734375 4.171875 -11.109375 C 4.703125 -11.492188 5.234375 -11.804688 5.765625 -12.046875 L 6.3125 -11.328125 C 5.707031 -10.890625 5.09375 -10.335938 4.46875 -9.671875 C 3.84375 -9.003906 3.273438 -8.273438 2.765625 -7.484375 C 2.253906 -6.691406 1.832031 -5.867188 1.5 -5.015625 C 1.175781 -4.160156 1.015625 -3.332031 1.015625 -2.53125 C 1.015625 -1.800781 1.175781 -1.238281 1.5 -0.84375 C 1.820312 -0.457031 2.304688 -0.265625 2.953125 -0.265625 C 3.460938 -0.265625 3.960938 -0.363281 4.453125 -0.5625 C 4.953125 -0.769531 5.4375 -1.050781 5.90625 -1.40625 C 6.375 -1.757812 6.820312 -2.179688 7.25 -2.671875 C 7.6875 -3.160156 8.101562 -3.679688 8.5 -4.234375 C 8.164062 -4.429688 7.875 -4.691406 7.625 -5.015625 C 7.375 -5.335938 7.160156 -5.707031 6.984375 -6.125 C 6.816406 -6.550781 6.6875 -7.003906 6.59375 -7.484375 C 6.507812 -7.960938 6.46875 -8.457031 6.46875 -8.96875 C 6.46875 -9.46875 6.53125 -9.941406 6.65625 -10.390625 C 6.78125 -10.835938 6.953125 -11.226562 7.171875 -11.5625 C 7.398438 -11.90625 7.660156 -12.171875 7.953125 -12.359375 C 8.253906 -12.554688 8.585938 -12.65625 8.953125 -12.65625 C 9.265625 -12.65625 9.546875 -12.570312 9.796875 -12.40625 C 10.054688 -12.238281 10.269531 -12.007812 10.4375 -11.71875 C 10.613281 -11.425781 10.742188 -11.078125 10.828125 -10.671875 C 10.921875 -10.273438 10.96875 -9.847656 10.96875 -9.390625 C 10.96875 -9.046875 10.9375 -8.664062 10.875 -8.25 C 10.820312 -7.84375 10.742188 -7.425781 10.640625 -7 C 10.535156 -6.582031 10.40625 -6.171875 10.25 -5.765625 C 10.09375 -5.359375 9.910156 -4.992188 9.703125 -4.671875 Z M 7.359375 -8.96875 C 7.359375 -8.632812 7.382812 -8.269531 7.4375 -7.875 C 7.5 -7.488281 7.59375 -7.109375 7.71875 -6.734375 C 7.84375 -6.367188 8.003906 -6.03125 8.203125 -5.71875 C 8.398438 -5.40625 8.640625 -5.15625 8.921875 -4.96875 C 9.128906 -5.375 9.304688 -5.785156 9.453125 -6.203125 C 9.597656 -6.617188 9.71875 -7.019531 9.8125 -7.40625 C 9.914062 -7.800781 9.984375 -8.164062 10.015625 -8.5 C 10.054688 -8.84375 10.078125 -9.140625 10.078125 -9.390625 C 10.078125 -9.734375 10.046875 -10.046875 9.984375 -10.328125 C 9.929688 -10.617188 9.859375 -10.867188 9.765625 -11.078125 C 9.671875 -11.296875 9.550781 -11.460938 9.40625 -11.578125 C 9.257812 -11.703125 9.097656 -11.765625 8.921875 -11.765625 C 8.691406 -11.765625 8.476562 -11.6875 8.28125 -11.53125 C 8.09375 -11.375 7.929688 -11.164062 7.796875 -10.90625 C 7.660156 -10.65625 7.550781 -10.359375 7.46875 -10.015625 C 7.394531 -9.679688 7.359375 -9.332031 7.359375 -8.96875 Z M 7.359375 -8.96875 "/></g></g></g><g fill="#000000" fill-opacity="1"><g transform="translate(172.40651, 185.177433)"><g/></g></g><g fill="#000000" fill-opacity="1"><g transform="translate(182.726062, 185.177433)"><g><path d="M 9.703125 -4.671875 C 9.742188 -4.660156 9.785156 -4.65625 9.828125 -4.65625 C 9.878906 -4.65625 9.9375 -4.65625 10 -4.65625 C 10.320312 -4.65625 10.613281 -4.6875 10.875 -4.75 C 11.132812 -4.820312 11.375 -4.925781 11.59375 -5.0625 C 11.820312 -5.195312 12.039062 -5.375 12.25 -5.59375 C 12.457031 -5.820312 12.660156 -6.097656 12.859375 -6.421875 L 13.46875 -5.9375 C 12.914062 -5.15625 12.347656 -4.609375 11.765625 -4.296875 C 11.179688 -3.992188 10.5625 -3.84375 9.90625 -3.84375 C 9.664062 -3.84375 9.453125 -3.863281 9.265625 -3.90625 C 8.773438 -3.082031 8.25 -2.378906 7.6875 -1.796875 C 7.125 -1.210938 6.550781 -0.738281 5.96875 -0.375 C 5.382812 -0.0078125 4.804688 0.253906 4.234375 0.421875 C 3.660156 0.585938 3.125 0.671875 2.625 0.671875 C 2.125 0.671875 1.65625 0.582031 1.21875 0.40625 C 0.789062 0.226562 0.421875 -0.0234375 0.109375 -0.359375 C -0.191406 -0.691406 -0.425781 -1.085938 -0.59375 -1.546875 C -0.769531 -2.003906 -0.859375 -2.519531 -0.859375 -3.09375 C -0.859375 -3.664062 -0.765625 -4.25 -0.578125 -4.84375 C -0.398438 -5.445312 -0.15625 -6.039062 0.15625 -6.625 C 0.476562 -7.207031 0.847656 -7.769531 1.265625 -8.3125 C 1.691406 -8.863281 2.148438 -9.375 2.640625 -9.84375 C 3.140625 -10.3125 3.648438 -10.734375 4.171875 -11.109375 C 4.703125 -11.492188 5.234375 -11.804688 5.765625 -12.046875 L 6.3125 -11.328125 C 5.707031 -10.890625 5.09375 -10.335938 4.46875 -9.671875 C 3.84375 -9.003906 3.273438 -8.273438 2.765625 -7.484375 C 2.253906 -6.691406 1.832031 -5.867188 1.5 -5.015625 C 1.175781 -4.160156 1.015625 -3.332031 1.015625 -2.53125 C 1.015625 -1.800781 1.175781 -1.238281 1.5 -0.84375 C 1.820312 -0.457031 2.304688 -0.265625 2.953125 -0.265625 C 3.460938 -0.265625 3.960938 -0.363281 4.453125 -0.5625 C 4.953125 -0.769531 5.4375 -1.050781 5.90625 -1.40625 C 6.375 -1.757812 6.820312 -2.179688 7.25 -2.671875 C 7.6875 -3.160156 8.101562 -3.679688 8.5 -4.234375 C 8.164062 -4.429688 7.875 -4.691406 7.625 -5.015625 C 7.375 -5.335938 7.160156 -5.707031 6.984375 -6.125 C 6.816406 -6.550781 6.6875 -7.003906 6.59375 -7.484375 C 6.507812 -7.960938 6.46875 -8.457031 6.46875 -8.96875 C 6.46875 -9.46875 6.53125 -9.941406 6.65625 -10.390625 C 6.78125 -10.835938 6.953125 -11.226562 7.171875 -11.5625 C 7.398438 -11.90625 7.660156 -12.171875 7.953125 -12.359375 C 8.253906 -12.554688 8.585938 -12.65625 8.953125 -12.65625 C 9.265625 -12.65625 9.546875 -12.570312 9.796875 -12.40625 C 10.054688 -12.238281 10.269531 -12.007812 10.4375 -11.71875 C 10.613281 -11.425781 10.742188 -11.078125 10.828125 -10.671875 C 10.921875 -10.273438 10.96875 -9.847656 10.96875 -9.390625 C 10.96875 -9.046875 10.9375 -8.664062 10.875 -8.25 C 10.820312 -7.84375 10.742188 -7.425781 10.640625 -7 C 10.535156 -6.582031 10.40625 -6.171875 10.25 -5.765625 C 10.09375 -5.359375 9.910156 -4.992188 9.703125 -4.671875 Z M 7.359375 -8.96875 C 7.359375 -8.632812 7.382812 -8.269531 7.4375 -7.875 C 7.5 -7.488281 7.59375 -7.109375 7.71875 -6.734375 C 7.84375 -6.367188 8.003906 -6.03125 8.203125 -5.71875 C 8.398438 -5.40625 8.640625 -5.15625 8.921875 -4.96875 C 9.128906 -5.375 9.304688 -5.785156 9.453125 -6.203125 C 9.597656 -6.617188 9.71875 -7.019531 9.8125 -7.40625 C 9.914062 -7.800781 9.984375 -8.164062 10.015625 -8.5 C 10.054688 -8.84375 10.078125 -9.140625 10.078125 -9.390625 C 10.078125 -9.734375 10.046875 -10.046875 9.984375 -10.328125 C 9.929688 -10.617188 9.859375 -10.867188 9.765625 -11.078125 C 9.671875 -11.296875 9.550781 -11.460938 9.40625 -11.578125 C 9.257812 -11.703125 9.097656 -11.765625 8.921875 -11.765625 C 8.691406 -11.765625 8.476562 -11.6875 8.28125 -11.53125 C 8.09375 -11.375 7.929688 -11.164062 7.796875 -10.90625 C 7.660156 -10.65625 7.550781 -10.359375 7.46875 -10.015625 C 7.394531 -9.679688 7.359375 -9.332031 7.359375 -8.96875 Z M 7.359375 -8.96875 "/></g></g></g><g fill="#000000" fill-opacity="1"><g transform="translate(195.573908, 185.177433)"><g><path d="M 8.015625 -3.75 C 7.484375 -3.132812 6.957031 -2.5625 6.4375 -2.03125 C 5.925781 -1.507812 5.414062 -1.0625 4.90625 -0.6875 C 4.394531 -0.320312 3.882812 -0.0351562 3.375 0.171875 C 2.875 0.390625 2.367188 0.5 1.859375 0.5 C 1.421875 0.5 1.023438 0.421875 0.671875 0.265625 C 0.328125 0.109375 0.0234375 -0.109375 -0.234375 -0.390625 C -0.492188 -0.671875 -0.691406 -1.015625 -0.828125 -1.421875 C -0.960938 -1.828125 -1.03125 -2.28125 -1.03125 -2.78125 C -1.03125 -3.570312 -0.851562 -4.382812 -0.5 -5.21875 C -0.15625 -6.0625 0.28125 -6.878906 0.8125 -7.671875 C 1.351562 -8.460938 1.945312 -9.210938 2.59375 -9.921875 C 3.238281 -10.640625 3.851562 -11.269531 4.4375 -11.8125 L 5.171875 -11.296875 C 4.765625 -10.691406 4.304688 -10.003906 3.796875 -9.234375 C 3.285156 -8.472656 2.800781 -7.679688 2.34375 -6.859375 C 1.894531 -6.035156 1.515625 -5.210938 1.203125 -4.390625 C 0.890625 -3.578125 0.734375 -2.816406 0.734375 -2.109375 C 0.734375 -1.640625 0.820312 -1.238281 1 -0.90625 C 1.175781 -0.570312 1.519531 -0.40625 2.03125 -0.40625 C 2.582031 -0.40625 3.1875 -0.625 3.84375 -1.0625 C 4.5 -1.5 5.175781 -2.066406 5.875 -2.765625 C 6.570312 -3.460938 7.265625 -4.25 7.953125 -5.125 C 8.648438 -6.007812 9.304688 -6.898438 9.921875 -7.796875 C 10.546875 -8.691406 11.113281 -9.546875 11.625 -10.359375 C 12.132812 -11.171875 12.550781 -11.863281 12.875 -12.4375 L 14.125 -11.8125 C 13.457031 -10.507812 12.816406 -9.289062 12.203125 -8.15625 C 11.585938 -7.03125 11.039062 -6.015625 10.5625 -5.109375 C 10.09375 -4.210938 9.71875 -3.429688 9.4375 -2.765625 C 9.15625 -2.097656 9.015625 -1.570312 9.015625 -1.1875 C 9.015625 -1.03125 9.046875 -0.898438 9.109375 -0.796875 C 9.179688 -0.691406 9.289062 -0.640625 9.4375 -0.640625 C 9.863281 -0.628906 10.332031 -0.8125 10.84375 -1.1875 C 11.351562 -1.5625 11.867188 -2.035156 12.390625 -2.609375 C 12.910156 -3.179688 13.421875 -3.804688 13.921875 -4.484375 C 14.421875 -5.171875 14.875 -5.816406 15.28125 -6.421875 L 15.890625 -5.9375 C 15.828125 -5.820312 15.6875 -5.585938 15.46875 -5.234375 C 15.25 -4.878906 14.976562 -4.472656 14.65625 -4.015625 C 14.332031 -3.554688 13.960938 -3.070312 13.546875 -2.5625 C 13.140625 -2.0625 12.707031 -1.597656 12.25 -1.171875 C 11.789062 -0.753906 11.3125 -0.410156 10.8125 -0.140625 C 10.320312 0.128906 9.835938 0.265625 9.359375 0.265625 C 9.054688 0.265625 8.785156 0.210938 8.546875 0.109375 C 8.316406 0.00390625 8.117188 -0.128906 7.953125 -0.296875 C 7.796875 -0.472656 7.671875 -0.675781 7.578125 -0.90625 C 7.492188 -1.132812 7.453125 -1.378906 7.453125 -1.640625 C 7.453125 -1.929688 7.5 -2.253906 7.59375 -2.609375 C 7.6875 -2.960938 7.828125 -3.34375 8.015625 -3.75 Z M 8.015625 -3.75 "/></g></g></g><g fill="#000000" fill-opacity="1"><g transform="translate(210.846844, 185.177433)"><g><path d="M 10.859375 -5.9375 C 10.679688 -5.6875 10.472656 -5.34375 10.234375 -4.90625 C 10.003906 -4.476562 9.734375 -4.015625 9.421875 -3.515625 C 9.117188 -3.015625 8.78125 -2.503906 8.40625 -1.984375 C 8.03125 -1.472656 7.617188 -1.007812 7.171875 -0.59375 C 6.734375 -0.1875 6.253906 0.144531 5.734375 0.40625 C 5.222656 0.675781 4.675781 0.8125 4.09375 0.8125 C 3.769531 0.8125 3.460938 0.757812 3.171875 0.65625 C 2.890625 0.5625 2.640625 0.410156 2.421875 0.203125 C 2.203125 -0.00390625 2.03125 -0.257812 1.90625 -0.5625 C 1.78125 -0.863281 1.71875 -1.222656 1.71875 -1.640625 C 1.71875 -2.203125 1.828125 -2.785156 2.046875 -3.390625 C 2.273438 -4.003906 2.535156 -4.597656 2.828125 -5.171875 C 3.128906 -5.742188 3.429688 -6.269531 3.734375 -6.75 C 4.035156 -7.226562 4.253906 -7.609375 4.390625 -7.890625 C 4.523438 -8.179688 4.59375 -8.429688 4.59375 -8.640625 C 4.59375 -8.785156 4.539062 -8.914062 4.4375 -9.03125 C 4.34375 -9.144531 4.222656 -9.253906 4.078125 -9.359375 C 3.941406 -9.472656 3.796875 -9.585938 3.640625 -9.703125 C 3.484375 -9.828125 3.351562 -9.976562 3.25 -10.15625 C 2.96875 -9.695312 2.675781 -9.226562 2.375 -8.75 C 2.113281 -8.351562 1.828125 -7.90625 1.515625 -7.40625 C 1.203125 -6.90625 0.90625 -6.414062 0.625 -5.9375 L 0 -6.421875 L 3.6875 -12.1875 L 4.1875 -11.921875 C 4.15625 -11.847656 4.113281 -11.738281 4.0625 -11.59375 C 4.007812 -11.445312 3.984375 -11.285156 3.984375 -11.109375 C 3.984375 -10.984375 4.003906 -10.859375 4.046875 -10.734375 C 4.085938 -10.617188 4.171875 -10.507812 4.296875 -10.40625 C 4.753906 -10 5.113281 -9.679688 5.375 -9.453125 C 5.644531 -9.234375 5.835938 -9.054688 5.953125 -8.921875 C 6.078125 -8.785156 6.15625 -8.675781 6.1875 -8.59375 C 6.21875 -8.507812 6.234375 -8.398438 6.234375 -8.265625 C 6.234375 -8.117188 6.207031 -7.945312 6.15625 -7.75 C 6.113281 -7.5625 6.035156 -7.328125 5.921875 -7.046875 C 5.816406 -6.773438 5.671875 -6.453125 5.484375 -6.078125 C 5.296875 -5.703125 5.054688 -5.269531 4.765625 -4.78125 C 4.585938 -4.476562 4.414062 -4.175781 4.25 -3.875 C 4.09375 -3.570312 3.945312 -3.265625 3.8125 -2.953125 C 3.675781 -2.648438 3.566406 -2.34375 3.484375 -2.03125 C 3.410156 -1.71875 3.375 -1.421875 3.375 -1.140625 C 3.375 -0.921875 3.40625 -0.742188 3.46875 -0.609375 C 3.53125 -0.472656 3.613281 -0.367188 3.71875 -0.296875 C 3.820312 -0.234375 3.929688 -0.191406 4.046875 -0.171875 C 4.171875 -0.148438 4.289062 -0.140625 4.40625 -0.140625 C 4.78125 -0.140625 5.15625 -0.25 5.53125 -0.46875 C 5.90625 -0.695312 6.269531 -0.988281 6.625 -1.34375 C 6.988281 -1.695312 7.335938 -2.097656 7.671875 -2.546875 C 8.015625 -3.003906 8.34375 -3.46875 8.65625 -3.9375 C 8.96875 -4.40625 9.253906 -4.851562 9.515625 -5.28125 C 9.773438 -5.71875 10.007812 -6.097656 10.21875 -6.421875 Z M 10.859375 -5.9375 "/></g></g></g><g fill="#000000" fill-opacity="1"><g transform="translate(119.518614, 220.756435)"><g><path d="M 40.140625 -20.890625 C 39.566406 -18.984375 38.9375 -17.175781 38.25 -15.46875 C 37.5625 -13.757812 36.90625 -12.242188 36.28125 -10.921875 C 35.570312 -9.390625 34.859375 -7.96875 34.140625 -6.65625 C 33.546875 -5.625 33.050781 -4.722656 32.65625 -3.953125 C 32.257812 -3.179688 31.941406 -2.523438 31.703125 -1.984375 C 31.460938 -1.441406 31.289062 -0.988281 31.1875 -0.625 C 31.082031 -0.269531 31.03125 0.0234375 31.03125 0.265625 C 31.03125 0.503906 31.082031 0.6875 31.1875 0.8125 C 31.289062 0.945312 31.414062 1.046875 31.5625 1.109375 C 31.707031 1.179688 31.847656 1.222656 31.984375 1.234375 C 32.128906 1.253906 32.25 1.265625 32.34375 1.265625 C 32.75 1.265625 33.226562 1.15625 33.78125 0.9375 C 34.332031 0.71875 34.929688 0.40625 35.578125 0 C 36.234375 -0.414062 36.914062 -0.910156 37.625 -1.484375 C 38.332031 -2.066406 39.035156 -2.71875 39.734375 -3.4375 C 40.441406 -4.164062 41.125 -4.945312 41.78125 -5.78125 C 42.4375 -6.625 43.039062 -7.519531 43.59375 -8.46875 C 44.476562 -10 45.1875 -11.421875 45.71875 -12.734375 C 45.382812 -13.390625 45.132812 -14.0625 44.96875 -14.75 C 44.8125 -15.445312 44.734375 -16.101562 44.734375 -16.71875 C 44.734375 -17.613281 44.875 -18.332031 45.15625 -18.875 C 45.4375 -19.414062 45.828125 -19.6875 46.328125 -19.6875 C 46.609375 -19.6875 46.84375 -19.613281 47.03125 -19.46875 C 47.21875 -19.332031 47.367188 -19.15625 47.484375 -18.9375 C 47.597656 -18.71875 47.679688 -18.476562 47.734375 -18.21875 C 47.785156 -17.96875 47.8125 -17.71875 47.8125 -17.46875 C 47.8125 -16.925781 47.734375 -16.304688 47.578125 -15.609375 C 47.421875 -14.910156 47.195312 -14.15625 46.90625 -13.34375 C 46.613281 -12.53125 46.253906 -11.671875 45.828125 -10.765625 C 45.410156 -9.867188 44.925781 -8.953125 44.375 -8.015625 C 43.820312 -7.078125 43.207031 -6.175781 42.53125 -5.3125 C 41.863281 -4.445312 41.164062 -3.632812 40.4375 -2.875 C 39.707031 -2.113281 38.96875 -1.421875 38.21875 -0.796875 C 37.46875 -0.171875 36.738281 0.359375 36.03125 0.796875 C 35.320312 1.242188 34.648438 1.585938 34.015625 1.828125 C 33.378906 2.078125 32.820312 2.203125 32.34375 2.203125 C 31.4375 2.203125 30.722656 1.992188 30.203125 1.578125 C 29.691406 1.171875 29.4375 0.515625 29.4375 -0.390625 C 29.4375 -0.890625 29.5 -1.382812 29.625 -1.875 C 29.757812 -2.363281 29.957031 -2.894531 30.21875 -3.46875 C 30.476562 -4.039062 30.796875 -4.664062 31.171875 -5.34375 C 31.546875 -6.03125 31.984375 -6.804688 32.484375 -7.671875 C 31.335938 -6.148438 30.097656 -4.671875 28.765625 -3.234375 C 27.441406 -1.804688 26.03125 -0.535156 24.53125 0.578125 C 23.851562 1.085938 23.234375 1.507812 22.671875 1.84375 C 22.109375 2.1875 21.59375 2.457031 21.125 2.65625 C 20.664062 2.863281 20.242188 3.007812 19.859375 3.09375 C 19.484375 3.1875 19.144531 3.234375 18.84375 3.234375 C 18.394531 3.234375 18.003906 3.171875 17.671875 3.046875 C 17.347656 2.921875 17.078125 2.75 16.859375 2.53125 C 16.648438 2.320312 16.5 2.070312 16.40625 1.78125 C 16.3125 1.488281 16.265625 1.171875 16.265625 0.828125 C 16.265625 0.253906 16.347656 -0.285156 16.515625 -0.796875 C 16.691406 -1.316406 16.941406 -1.847656 17.265625 -2.390625 C 17.648438 -2.984375 18.101562 -3.640625 18.625 -4.359375 C 19.144531 -5.085938 19.6875 -5.847656 20.25 -6.640625 C 20.820312 -7.429688 21.382812 -8.238281 21.9375 -9.0625 C 22.5 -9.894531 23 -10.71875 23.4375 -11.53125 C 23.882812 -12.34375 24.238281 -13.128906 24.5 -13.890625 C 24.769531 -14.660156 24.90625 -15.382812 24.90625 -16.0625 C 24.90625 -17.132812 24.695312 -18.109375 24.28125 -18.984375 C 23.863281 -19.867188 23.265625 -20.625 22.484375 -21.25 C 21.703125 -21.882812 20.757812 -22.375 19.65625 -22.71875 C 18.550781 -23.070312 17.3125 -23.25 15.9375 -23.25 C 14.039062 -23.25 12.300781 -22.972656 10.71875 -22.421875 C 9.132812 -21.867188 7.769531 -21.109375 6.625 -20.140625 C 5.488281 -19.171875 4.601562 -18.03125 3.96875 -16.71875 C 3.332031 -15.40625 3.015625 -13.988281 3.015625 -12.46875 C 3.015625 -11.539062 3.160156 -10.695312 3.453125 -9.9375 C 3.742188 -9.175781 4.15625 -8.519531 4.6875 -7.96875 C 5.21875 -7.414062 5.863281 -6.988281 6.625 -6.6875 C 7.394531 -6.382812 8.25 -6.234375 9.1875 -6.234375 C 10.28125 -6.234375 11.289062 -6.421875 12.21875 -6.796875 C 13.144531 -7.179688 13.988281 -7.707031 14.75 -8.375 C 15.507812 -9.039062 16.1875 -9.820312 16.78125 -10.71875 C 17.382812 -11.625 17.894531 -12.59375 18.3125 -13.625 L 19.078125 -13.34375 C 17.960938 -10.582031 16.488281 -8.492188 14.65625 -7.078125 C 12.820312 -5.660156 10.644531 -4.953125 8.125 -4.953125 C 7.050781 -4.953125 6.078125 -5.128906 5.203125 -5.484375 C 4.335938 -5.847656 3.59375 -6.351562 2.96875 -7 C 2.351562 -7.65625 1.875 -8.429688 1.53125 -9.328125 C 1.195312 -10.234375 1.03125 -11.222656 1.03125 -12.296875 C 1.03125 -13.753906 1.269531 -15.0625 1.75 -16.21875 C 2.238281 -17.382812 2.878906 -18.40625 3.671875 -19.28125 C 4.472656 -20.15625 5.378906 -20.898438 6.390625 -21.515625 C 7.398438 -22.140625 8.4375 -22.644531 9.5 -23.03125 C 10.570312 -23.425781 11.617188 -23.710938 12.640625 -23.890625 C 13.660156 -24.066406 14.578125 -24.15625 15.390625 -24.15625 C 16.929688 -24.15625 18.351562 -23.96875 19.65625 -23.59375 C 20.96875 -23.21875 22.101562 -22.660156 23.0625 -21.921875 C 24.019531 -21.179688 24.765625 -20.265625 25.296875 -19.171875 C 25.835938 -18.085938 26.109375 -16.828125 26.109375 -15.390625 C 26.109375 -14.347656 25.910156 -13.191406 25.515625 -11.921875 C 25.117188 -10.660156 24.4375 -9.300781 23.46875 -7.84375 C 22.570312 -6.5 21.753906 -5.332031 21.015625 -4.34375 C 20.285156 -3.363281 19.660156 -2.515625 19.140625 -1.796875 C 18.617188 -1.078125 18.210938 -0.476562 17.921875 0 C 17.640625 0.476562 17.5 0.878906 17.5 1.203125 C 17.5 1.535156 17.617188 1.804688 17.859375 2.015625 C 18.097656 2.222656 18.429688 2.328125 18.859375 2.328125 C 19.460938 2.328125 20.195312 2.117188 21.0625 1.703125 C 21.925781 1.285156 22.898438 0.675781 23.984375 -0.125 C 25.046875 -0.914062 26.0625 -1.785156 27.03125 -2.734375 C 28 -3.679688 28.914062 -4.671875 29.78125 -5.703125 C 30.65625 -6.734375 31.472656 -7.78125 32.234375 -8.84375 C 33.003906 -9.90625 33.71875 -10.945312 34.375 -11.96875 C 35.03125 -13 35.625 -13.992188 36.15625 -14.953125 C 36.695312 -15.910156 37.171875 -16.796875 37.578125 -17.609375 C 37.992188 -18.421875 38.347656 -19.140625 38.640625 -19.765625 C 38.929688 -20.390625 39.148438 -20.878906 39.296875 -21.234375 Z M 46.171875 -13.921875 C 46.441406 -14.648438 46.632812 -15.3125 46.75 -15.90625 C 46.863281 -16.507812 46.921875 -17.019531 46.921875 -17.4375 C 46.921875 -17.519531 46.914062 -17.640625 46.90625 -17.796875 C 46.90625 -17.953125 46.882812 -18.097656 46.84375 -18.234375 C 46.800781 -18.378906 46.738281 -18.503906 46.65625 -18.609375 C 46.570312 -18.722656 46.460938 -18.78125 46.328125 -18.78125 C 46.128906 -18.78125 45.960938 -18.585938 45.828125 -18.203125 C 45.703125 -17.816406 45.640625 -17.34375 45.640625 -16.78125 C 45.640625 -16.351562 45.679688 -15.894531 45.765625 -15.40625 C 45.847656 -14.914062 45.984375 -14.421875 46.171875 -13.921875 Z M 46.171875 -13.921875 "/></g></g></g><g fill="#000000" fill-opacity="1"><g transform="translate(167.315342, 220.756435)"><g><path d="M 1.3125 -3.921875 C 1.28125 -3.785156 1.257812 -3.644531 1.25 -3.5 C 1.238281 -3.363281 1.234375 -3.226562 1.234375 -3.09375 C 1.234375 -2.6875 1.289062 -2.296875 1.40625 -1.921875 C 1.53125 -1.546875 1.710938 -1.21875 1.953125 -0.9375 C 2.191406 -0.65625 2.484375 -0.429688 2.828125 -0.265625 C 3.179688 -0.109375 3.582031 -0.03125 4.03125 -0.03125 C 5.53125 -0.03125 6.976562 -0.539062 8.375 -1.5625 C 9.78125 -2.582031 11.175781 -4.203125 12.5625 -6.421875 L 13.140625 -5.90625 C 12.390625 -4.644531 11.625 -3.578125 10.84375 -2.703125 C 10.0625 -1.835938 9.28125 -1.132812 8.5 -0.59375 C 7.726562 -0.0625 6.96875 0.320312 6.21875 0.5625 C 5.476562 0.800781 4.769531 0.921875 4.09375 0.921875 C 3.601562 0.921875 3.082031 0.851562 2.53125 0.71875 C 1.976562 0.582031 1.46875 0.351562 1 0.03125 C 0.539062 -0.289062 0.160156 -0.71875 -0.140625 -1.25 C -0.453125 -1.789062 -0.609375 -2.460938 -0.609375 -3.265625 C -0.609375 -4.128906 -0.457031 -4.957031 -0.15625 -5.75 C 0.132812 -6.550781 0.515625 -7.296875 0.984375 -7.984375 C 1.453125 -8.671875 1.988281 -9.296875 2.59375 -9.859375 C 3.207031 -10.429688 3.828125 -10.914062 4.453125 -11.3125 C 5.078125 -11.71875 5.6875 -12.03125 6.28125 -12.25 C 6.875 -12.476562 7.398438 -12.59375 7.859375 -12.59375 C 8.160156 -12.59375 8.460938 -12.546875 8.765625 -12.453125 C 9.078125 -12.359375 9.359375 -12.210938 9.609375 -12.015625 C 9.859375 -11.828125 10.054688 -11.570312 10.203125 -11.25 C 10.359375 -10.925781 10.4375 -10.539062 10.4375 -10.09375 C 10.4375 -9.488281 10.296875 -8.921875 10.015625 -8.390625 C 9.734375 -7.859375 9.359375 -7.363281 8.890625 -6.90625 C 8.421875 -6.457031 7.875 -6.050781 7.25 -5.6875 C 6.632812 -5.320312 5.988281 -5.015625 5.3125 -4.765625 C 4.632812 -4.515625 3.953125 -4.3125 3.265625 -4.15625 C 2.578125 -4.007812 1.925781 -3.929688 1.3125 -3.921875 Z M 1.4375 -4.65625 C 2.207031 -4.738281 2.929688 -4.898438 3.609375 -5.140625 C 4.285156 -5.378906 4.90625 -5.675781 5.46875 -6.03125 C 6.03125 -6.382812 6.53125 -6.765625 6.96875 -7.171875 C 7.414062 -7.585938 7.785156 -8.003906 8.078125 -8.421875 C 8.378906 -8.847656 8.609375 -9.253906 8.765625 -9.640625 C 8.929688 -10.035156 9.015625 -10.390625 9.015625 -10.703125 C 9.015625 -11.015625 8.929688 -11.257812 8.765625 -11.4375 C 8.597656 -11.625 8.398438 -11.71875 8.171875 -11.71875 C 7.671875 -11.71875 7.101562 -11.535156 6.46875 -11.171875 C 5.832031 -10.804688 5.195312 -10.304688 4.5625 -9.671875 C 3.9375 -9.035156 3.347656 -8.285156 2.796875 -7.421875 C 2.242188 -6.566406 1.789062 -5.644531 1.4375 -4.65625 Z M 1.4375 -4.65625 "/></g></g></g><g fill="#000000" fill-opacity="1"><g transform="translate(179.870796, 220.756435)"><g><path d="M 19.1875 -22.609375 C 19.0625 -22.421875 18.851562 -22.113281 18.5625 -21.6875 C 18.28125 -21.269531 17.945312 -20.765625 17.5625 -20.171875 C 17.1875 -19.585938 16.773438 -18.941406 16.328125 -18.234375 C 15.890625 -17.523438 15.445312 -16.789062 15 -16.03125 C 14.5625 -15.28125 14.132812 -14.515625 13.71875 -13.734375 C 13.300781 -12.960938 12.929688 -12.222656 12.609375 -11.515625 C 12.109375 -10.410156 11.691406 -9.425781 11.359375 -8.5625 C 11.035156 -7.695312 10.78125 -6.925781 10.59375 -6.25 C 10.40625 -5.570312 10.269531 -4.984375 10.1875 -4.484375 C 10.113281 -3.984375 10.078125 -3.554688 10.078125 -3.203125 C 10.078125 -2.546875 10.175781 -2.09375 10.375 -1.84375 C 10.582031 -1.59375 10.859375 -1.46875 11.203125 -1.46875 C 11.554688 -1.46875 11.894531 -1.554688 12.21875 -1.734375 C 12.550781 -1.921875 12.867188 -2.15625 13.171875 -2.4375 C 13.472656 -2.726562 13.757812 -3.054688 14.03125 -3.421875 C 14.300781 -3.785156 14.550781 -4.148438 14.78125 -4.515625 C 15.019531 -4.890625 15.234375 -5.242188 15.421875 -5.578125 C 15.617188 -5.910156 15.796875 -6.191406 15.953125 -6.421875 L 16.5625 -5.9375 C 16.4375 -5.726562 16.28125 -5.453125 16.09375 -5.109375 C 15.90625 -4.773438 15.691406 -4.40625 15.453125 -4 C 15.210938 -3.601562 14.9375 -3.203125 14.625 -2.796875 C 14.3125 -2.390625 13.96875 -2.019531 13.59375 -1.6875 C 13.226562 -1.351562 12.816406 -1.078125 12.359375 -0.859375 C 11.910156 -0.648438 11.421875 -0.546875 10.890625 -0.546875 C 10.640625 -0.546875 10.375 -0.578125 10.09375 -0.640625 C 9.8125 -0.710938 9.550781 -0.832031 9.3125 -1 C 9.070312 -1.175781 8.859375 -1.414062 8.671875 -1.71875 C 8.484375 -2.03125 8.363281 -2.421875 8.3125 -2.890625 C 7.445312 -1.960938 6.609375 -1.257812 5.796875 -0.78125 C 4.984375 -0.300781 4.21875 -0.0625 3.5 -0.0625 C 3.125 -0.0625 2.71875 -0.125 2.28125 -0.25 C 1.84375 -0.382812 1.425781 -0.601562 1.03125 -0.90625 C 0.644531 -1.21875 0.316406 -1.628906 0.046875 -2.140625 C -0.210938 -2.648438 -0.34375 -3.285156 -0.34375 -4.046875 C -0.34375 -4.890625 -0.210938 -5.695312 0.046875 -6.46875 C 0.316406 -7.238281 0.675781 -7.953125 1.125 -8.609375 C 1.570312 -9.265625 2.082031 -9.859375 2.65625 -10.390625 C 3.238281 -10.929688 3.84375 -11.382812 4.46875 -11.75 C 5.101562 -12.125 5.738281 -12.414062 6.375 -12.625 C 7.007812 -12.832031 7.609375 -12.9375 8.171875 -12.9375 C 8.921875 -12.9375 9.503906 -12.84375 9.921875 -12.65625 C 10.347656 -12.476562 10.671875 -12.296875 10.890625 -12.109375 C 11.046875 -12.429688 11.257812 -12.84375 11.53125 -13.34375 C 11.8125 -13.84375 12.132812 -14.398438 12.5 -15.015625 C 12.875 -15.628906 13.285156 -16.28125 13.734375 -16.96875 C 14.179688 -17.664062 14.65625 -18.363281 15.15625 -19.0625 C 15.65625 -19.769531 16.179688 -20.46875 16.734375 -21.15625 C 17.296875 -21.84375 17.863281 -22.488281 18.4375 -23.09375 Z M 8.296875 -4.1875 C 8.347656 -5.03125 8.539062 -6.023438 8.875 -7.171875 C 9.21875 -8.328125 9.738281 -9.660156 10.4375 -11.171875 C 10.28125 -11.410156 10.054688 -11.59375 9.765625 -11.71875 C 9.472656 -11.851562 9.144531 -11.921875 8.78125 -11.921875 C 8.21875 -11.921875 7.644531 -11.804688 7.0625 -11.578125 C 6.476562 -11.347656 5.921875 -11.035156 5.390625 -10.640625 C 4.859375 -10.253906 4.359375 -9.796875 3.890625 -9.265625 C 3.421875 -8.734375 3.007812 -8.160156 2.65625 -7.546875 C 2.3125 -6.941406 2.035156 -6.304688 1.828125 -5.640625 C 1.628906 -4.984375 1.53125 -4.335938 1.53125 -3.703125 C 1.53125 -2.835938 1.707031 -2.164062 2.0625 -1.6875 C 2.425781 -1.207031 2.914062 -0.96875 3.53125 -0.96875 C 3.8125 -0.96875 4.125 -1.023438 4.46875 -1.140625 C 4.8125 -1.253906 5.1875 -1.4375 5.59375 -1.6875 C 6 -1.945312 6.425781 -2.28125 6.875 -2.6875 C 7.320312 -3.09375 7.796875 -3.59375 8.296875 -4.1875 Z M 8.296875 -4.1875 "/></g></g></g><g fill="#000000" fill-opacity="1"><g transform="translate(195.814508, 220.756435)"><g><path d="M 19.1875 -22.609375 C 19.0625 -22.421875 18.851562 -22.113281 18.5625 -21.6875 C 18.28125 -21.269531 17.945312 -20.765625 17.5625 -20.171875 C 17.1875 -19.585938 16.773438 -18.941406 16.328125 -18.234375 C 15.890625 -17.523438 15.445312 -16.789062 15 -16.03125 C 14.5625 -15.28125 14.132812 -14.515625 13.71875 -13.734375 C 13.300781 -12.960938 12.929688 -12.222656 12.609375 -11.515625 C 12.109375 -10.410156 11.691406 -9.425781 11.359375 -8.5625 C 11.035156 -7.695312 10.78125 -6.925781 10.59375 -6.25 C 10.40625 -5.570312 10.269531 -4.984375 10.1875 -4.484375 C 10.113281 -3.984375 10.078125 -3.554688 10.078125 -3.203125 C 10.078125 -2.546875 10.175781 -2.09375 10.375 -1.84375 C 10.582031 -1.59375 10.859375 -1.46875 11.203125 -1.46875 C 11.554688 -1.46875 11.894531 -1.554688 12.21875 -1.734375 C 12.550781 -1.921875 12.867188 -2.15625 13.171875 -2.4375 C 13.472656 -2.726562 13.757812 -3.054688 14.03125 -3.421875 C 14.300781 -3.785156 14.550781 -4.148438 14.78125 -4.515625 C 15.019531 -4.890625 15.234375 -5.242188 15.421875 -5.578125 C 15.617188 -5.910156 15.796875 -6.191406 15.953125 -6.421875 L 16.5625 -5.9375 C 16.4375 -5.726562 16.28125 -5.453125 16.09375 -5.109375 C 15.90625 -4.773438 15.691406 -4.40625 15.453125 -4 C 15.210938 -3.601562 14.9375 -3.203125 14.625 -2.796875 C 14.3125 -2.390625 13.96875 -2.019531 13.59375 -1.6875 C 13.226562 -1.351562 12.816406 -1.078125 12.359375 -0.859375 C 11.910156 -0.648438 11.421875 -0.546875 10.890625 -0.546875 C 10.640625 -0.546875 10.375 -0.578125 10.09375 -0.640625 C 9.8125 -0.710938 9.550781 -0.832031 9.3125 -1 C 9.070312 -1.175781 8.859375 -1.414062 8.671875 -1.71875 C 8.484375 -2.03125 8.363281 -2.421875 8.3125 -2.890625 C 7.445312 -1.960938 6.609375 -1.257812 5.796875 -0.78125 C 4.984375 -0.300781 4.21875 -0.0625 3.5 -0.0625 C 3.125 -0.0625 2.71875 -0.125 2.28125 -0.25 C 1.84375 -0.382812 1.425781 -0.601562 1.03125 -0.90625 C 0.644531 -1.21875 0.316406 -1.628906 0.046875 -2.140625 C -0.210938 -2.648438 -0.34375 -3.285156 -0.34375 -4.046875 C -0.34375 -4.890625 -0.210938 -5.695312 0.046875 -6.46875 C 0.316406 -7.238281 0.675781 -7.953125 1.125 -8.609375 C 1.570312 -9.265625 2.082031 -9.859375 2.65625 -10.390625 C 3.238281 -10.929688 3.84375 -11.382812 4.46875 -11.75 C 5.101562 -12.125 5.738281 -12.414062 6.375 -12.625 C 7.007812 -12.832031 7.609375 -12.9375 8.171875 -12.9375 C 8.921875 -12.9375 9.503906 -12.84375 9.921875 -12.65625 C 10.347656 -12.476562 10.671875 -12.296875 10.890625 -12.109375 C 11.046875 -12.429688 11.257812 -12.84375 11.53125 -13.34375 C 11.8125 -13.84375 12.132812 -14.398438 12.5 -15.015625 C 12.875 -15.628906 13.285156 -16.28125 13.734375 -16.96875 C 14.179688 -17.664062 14.65625 -18.363281 15.15625 -19.0625 C 15.65625 -19.769531 16.179688 -20.46875 16.734375 -21.15625 C 17.296875 -21.84375 17.863281 -22.488281 18.4375 -23.09375 Z M 8.296875 -4.1875 C 8.347656 -5.03125 8.539062 -6.023438 8.875 -7.171875 C 9.21875 -8.328125 9.738281 -9.660156 10.4375 -11.171875 C 10.28125 -11.410156 10.054688 -11.59375 9.765625 -11.71875 C 9.472656 -11.851562 9.144531 -11.921875 8.78125 -11.921875 C 8.21875 -11.921875 7.644531 -11.804688 7.0625 -11.578125 C 6.476562 -11.347656 5.921875 -11.035156 5.390625 -10.640625 C 4.859375 -10.253906 4.359375 -9.796875 3.890625 -9.265625 C 3.421875 -8.734375 3.007812 -8.160156 2.65625 -7.546875 C 2.3125 -6.941406 2.035156 -6.304688 1.828125 -5.640625 C 1.628906 -4.984375 1.53125 -4.335938 1.53125 -3.703125 C 1.53125 -2.835938 1.707031 -2.164062 2.0625 -1.6875 C 2.425781 -1.207031 2.914062 -0.96875 3.53125 -0.96875 C 3.8125 -0.96875 4.125 -1.023438 4.46875 -1.140625 C 4.8125 -1.253906 5.1875 -1.4375 5.59375 -1.6875 C 6 -1.945312 6.425781 -2.28125 6.875 -2.6875 C 7.320312 -3.09375 7.796875 -3.59375 8.296875 -4.1875 Z M 8.296875 -4.1875 "/></g></g></g><g fill="#000000" fill-opacity="1"><g transform="translate(211.75822, 220.756435)"><g><path d="M 7.71875 -15.265625 C 7.71875 -15.035156 7.660156 -14.796875 7.546875 -14.546875 C 7.429688 -14.296875 7.285156 -14.070312 7.109375 -13.875 C 6.929688 -13.6875 6.734375 -13.53125 6.515625 -13.40625 C 6.296875 -13.28125 6.078125 -13.21875 5.859375 -13.21875 C 5.671875 -13.21875 5.523438 -13.285156 5.421875 -13.421875 C 5.316406 -13.566406 5.265625 -13.742188 5.265625 -13.953125 C 5.265625 -14.140625 5.296875 -14.359375 5.359375 -14.609375 C 5.429688 -14.859375 5.535156 -15.09375 5.671875 -15.3125 C 5.816406 -15.539062 5.984375 -15.734375 6.171875 -15.890625 C 6.367188 -16.054688 6.59375 -16.140625 6.84375 -16.140625 C 7.082031 -16.140625 7.285156 -16.046875 7.453125 -15.859375 C 7.628906 -15.679688 7.71875 -15.484375 7.71875 -15.265625 Z M 4.5 -11.4375 C 4.351562 -11.144531 4.144531 -10.753906 3.875 -10.265625 C 3.601562 -9.773438 3.3125 -9.238281 3 -8.65625 C 2.695312 -8.082031 2.382812 -7.476562 2.0625 -6.84375 C 1.738281 -6.207031 1.445312 -5.585938 1.1875 -4.984375 C 0.9375 -4.378906 0.726562 -3.8125 0.5625 -3.28125 C 0.40625 -2.757812 0.328125 -2.3125 0.328125 -1.9375 C 0.328125 -1.601562 0.394531 -1.375 0.53125 -1.25 C 0.664062 -1.132812 0.863281 -1.078125 1.125 -1.078125 C 1.59375 -1.078125 2.050781 -1.234375 2.5 -1.546875 C 2.945312 -1.859375 3.390625 -2.265625 3.828125 -2.765625 C 4.265625 -3.265625 4.695312 -3.832031 5.125 -4.46875 C 5.550781 -5.113281 5.976562 -5.765625 6.40625 -6.421875 L 7.015625 -5.9375 C 6.679688 -5.34375 6.304688 -4.707031 5.890625 -4.03125 C 5.472656 -3.351562 5.003906 -2.722656 4.484375 -2.140625 C 3.972656 -1.554688 3.40625 -1.078125 2.78125 -0.703125 C 2.164062 -0.328125 1.488281 -0.140625 0.75 -0.140625 C 0.0625 -0.140625 -0.460938 -0.34375 -0.828125 -0.75 C -1.191406 -1.164062 -1.375 -1.703125 -1.375 -2.359375 C -1.375 -3.128906 -1.195312 -3.929688 -0.84375 -4.765625 C -0.488281 -5.597656 -0.046875 -6.425781 0.484375 -7.25 C 1.023438 -8.070312 1.609375 -8.859375 2.234375 -9.609375 C 2.859375 -10.367188 3.429688 -11.0625 3.953125 -11.6875 Z M 4.5 -11.4375 "/></g></g></g><g fill="#000000" fill-opacity="1"><g transform="translate(218.156342, 220.756435)"><g><path d="M 14.359375 -8.921875 C 14.359375 -8.429688 14.269531 -7.929688 14.09375 -7.421875 C 13.925781 -6.910156 13.710938 -6.398438 13.453125 -5.890625 C 13.191406 -5.378906 12.910156 -4.875 12.609375 -4.375 C 12.304688 -3.882812 12.023438 -3.410156 11.765625 -2.953125 C 11.503906 -2.492188 11.285156 -2.054688 11.109375 -1.640625 C 10.941406 -1.222656 10.859375 -0.84375 10.859375 -0.5 C 10.859375 -0.238281 10.914062 -0.0625 11.03125 0.03125 C 11.144531 0.125 11.269531 0.171875 11.40625 0.171875 C 11.84375 0.171875 12.328125 -0.0390625 12.859375 -0.46875 C 13.398438 -0.90625 13.945312 -1.445312 14.5 -2.09375 C 15.0625 -2.75 15.617188 -3.460938 16.171875 -4.234375 C 16.722656 -5.003906 17.222656 -5.734375 17.671875 -6.421875 L 18.28125 -5.9375 C 18.195312 -5.800781 18.03125 -5.523438 17.78125 -5.109375 C 17.539062 -4.703125 17.242188 -4.238281 16.890625 -3.71875 C 16.535156 -3.195312 16.132812 -2.648438 15.6875 -2.078125 C 15.25 -1.515625 14.773438 -0.992188 14.265625 -0.515625 C 13.765625 -0.046875 13.25 0.34375 12.71875 0.65625 C 12.1875 0.96875 11.648438 1.125 11.109375 1.125 C 10.804688 1.125 10.523438 1.070312 10.265625 0.96875 C 10.015625 0.863281 9.800781 0.71875 9.625 0.53125 C 9.445312 0.351562 9.304688 0.140625 9.203125 -0.109375 C 9.097656 -0.359375 9.046875 -0.617188 9.046875 -0.890625 C 9.046875 -1.335938 9.144531 -1.820312 9.34375 -2.34375 C 9.550781 -2.863281 9.800781 -3.398438 10.09375 -3.953125 C 10.394531 -4.503906 10.722656 -5.054688 11.078125 -5.609375 C 11.429688 -6.171875 11.753906 -6.703125 12.046875 -7.203125 C 12.347656 -7.710938 12.597656 -8.179688 12.796875 -8.609375 C 13.003906 -9.035156 13.109375 -9.40625 13.109375 -9.71875 C 13.109375 -10.070312 13.015625 -10.367188 12.828125 -10.609375 C 12.640625 -10.847656 12.375 -10.96875 12.03125 -10.96875 C 11.65625 -10.96875 11.226562 -10.816406 10.75 -10.515625 C 10.269531 -10.210938 9.726562 -9.769531 9.125 -9.1875 C 8.53125 -8.601562 7.878906 -7.882812 7.171875 -7.03125 C 6.472656 -6.175781 5.710938 -5.203125 4.890625 -4.109375 C 4.421875 -3.484375 3.960938 -2.875 3.515625 -2.28125 C 3.316406 -2.03125 3.117188 -1.773438 2.921875 -1.515625 C 2.722656 -1.253906 2.523438 -0.992188 2.328125 -0.734375 C 2.140625 -0.472656 1.957031 -0.226562 1.78125 0 C 1.613281 0.238281 1.460938 0.445312 1.328125 0.625 L -0.1875 0 L 1.828125 -2.765625 C 2.109375 -3.160156 2.394531 -3.582031 2.6875 -4.03125 C 2.988281 -4.476562 3.285156 -4.9375 3.578125 -5.40625 C 3.878906 -5.882812 4.160156 -6.363281 4.421875 -6.84375 C 4.679688 -7.320312 4.925781 -7.796875 5.15625 -8.265625 C 5.488281 -8.953125 5.71875 -9.519531 5.84375 -9.96875 C 5.96875 -10.425781 6.03125 -10.789062 6.03125 -11.0625 C 6.03125 -11.375 5.972656 -11.578125 5.859375 -11.671875 C 5.742188 -11.765625 5.585938 -11.8125 5.390625 -11.8125 C 5.171875 -11.8125 4.921875 -11.695312 4.640625 -11.46875 C 4.359375 -11.25 4.066406 -10.960938 3.765625 -10.609375 C 3.472656 -10.265625 3.171875 -9.875 2.859375 -9.4375 C 2.554688 -9 2.265625 -8.5625 1.984375 -8.125 C 1.710938 -7.6875 1.457031 -7.269531 1.21875 -6.875 C 0.976562 -6.488281 0.78125 -6.175781 0.625 -5.9375 L 0 -6.421875 C 0.582031 -7.335938 1.113281 -8.175781 1.59375 -8.9375 C 2.070312 -9.695312 2.53125 -10.351562 2.96875 -10.90625 C 3.40625 -11.457031 3.832031 -11.882812 4.25 -12.1875 C 4.675781 -12.488281 5.125 -12.640625 5.59375 -12.640625 C 5.84375 -12.640625 6.082031 -12.585938 6.3125 -12.484375 C 6.550781 -12.378906 6.757812 -12.226562 6.9375 -12.03125 C 7.113281 -11.832031 7.253906 -11.585938 7.359375 -11.296875 C 7.460938 -11.015625 7.515625 -10.6875 7.515625 -10.3125 C 7.515625 -10.007812 7.484375 -9.695312 7.421875 -9.375 C 7.921875 -9.863281 8.390625 -10.269531 8.828125 -10.59375 C 9.265625 -10.914062 9.664062 -11.171875 10.03125 -11.359375 C 10.394531 -11.546875 10.734375 -11.679688 11.046875 -11.765625 C 11.359375 -11.847656 11.640625 -11.890625 11.890625 -11.890625 C 12.109375 -11.890625 12.359375 -11.847656 12.640625 -11.765625 C 12.929688 -11.679688 13.203125 -11.53125 13.453125 -11.3125 C 13.703125 -11.101562 13.914062 -10.804688 14.09375 -10.421875 C 14.269531 -10.035156 14.359375 -9.535156 14.359375 -8.921875 Z M 14.359375 -8.921875 "/></g></g></g><g fill="#000000" fill-opacity="1"><g transform="translate(235.81998, 220.756435)"><g><path d="M 6.5625 -0.578125 C 5.957031 -0.179688 5.335938 0.132812 4.703125 0.375 C 4.066406 0.625 3.457031 0.75 2.875 0.75 C 2.4375 0.75 2 0.6875 1.5625 0.5625 C 1.125 0.4375 0.726562 0.226562 0.375 -0.0625 C 0.0195312 -0.351562 -0.265625 -0.738281 -0.484375 -1.21875 C -0.710938 -1.695312 -0.828125 -2.296875 -0.828125 -3.015625 C -0.828125 -3.867188 -0.671875 -4.691406 -0.359375 -5.484375 C -0.046875 -6.273438 0.363281 -7.007812 0.875 -7.6875 C 1.394531 -8.375 1.984375 -9 2.640625 -9.5625 C 3.304688 -10.125 3.992188 -10.601562 4.703125 -11 C 5.410156 -11.394531 6.113281 -11.703125 6.8125 -11.921875 C 7.507812 -12.140625 8.144531 -12.25 8.71875 -12.25 C 9.28125 -12.25 9.757812 -12.1875 10.15625 -12.0625 C 10.550781 -11.945312 10.882812 -11.800781 11.15625 -11.625 C 11.4375 -11.445312 11.65625 -11.253906 11.8125 -11.046875 C 11.976562 -10.835938 12.113281 -10.640625 12.21875 -10.453125 L 13.140625 -11.6875 L 13.71875 -11.296875 C 13.71875 -11.285156 13.625 -11.101562 13.4375 -10.75 C 13.25 -10.40625 13.003906 -9.941406 12.703125 -9.359375 C 12.410156 -8.773438 12.066406 -8.085938 11.671875 -7.296875 C 11.273438 -6.515625 10.863281 -5.679688 10.4375 -4.796875 C 10.007812 -3.910156 9.570312 -3 9.125 -2.0625 C 8.6875 -1.125 8.265625 -0.203125 7.859375 0.703125 C 8.898438 0.109375 9.816406 -0.460938 10.609375 -1.015625 C 11.398438 -1.566406 12.109375 -2.125 12.734375 -2.6875 C 13.359375 -3.25 13.921875 -3.832031 14.421875 -4.4375 C 14.929688 -5.039062 15.421875 -5.703125 15.890625 -6.421875 L 16.53125 -5.9375 C 16.070312 -5.1875 15.578125 -4.492188 15.046875 -3.859375 C 14.515625 -3.222656 13.890625 -2.59375 13.171875 -1.96875 C 12.453125 -1.34375 11.613281 -0.695312 10.65625 -0.03125 C 9.695312 0.625 8.5625 1.347656 7.25 2.140625 C 6.15625 4.804688 5.101562 7.015625 4.09375 8.765625 C 3.082031 10.515625 2.125 11.898438 1.21875 12.921875 C 0.320312 13.941406 -0.507812 14.65625 -1.28125 15.0625 C -2.050781 15.476562 -2.75 15.6875 -3.375 15.6875 C -3.625 15.6875 -3.894531 15.65625 -4.1875 15.59375 C -4.476562 15.53125 -4.75 15.40625 -5 15.21875 C -5.257812 15.039062 -5.472656 14.789062 -5.640625 14.46875 C -5.804688 14.144531 -5.890625 13.734375 -5.890625 13.234375 C -5.890625 12.265625 -5.632812 11.3125 -5.125 10.375 C -4.613281 9.4375 -3.867188 8.5 -2.890625 7.5625 C -1.921875 6.632812 -0.738281 5.710938 0.65625 4.796875 C 2.0625 3.878906 3.65625 2.957031 5.4375 2.03125 C 5.65625 1.539062 5.851562 1.070312 6.03125 0.625 C 6.21875 0.1875 6.394531 -0.210938 6.5625 -0.578125 Z M 7.453125 -2.484375 C 7.753906 -3.066406 8.054688 -3.640625 8.359375 -4.203125 C 8.671875 -4.773438 8.988281 -5.34375 9.3125 -5.90625 C 9.644531 -6.476562 9.992188 -7.0625 10.359375 -7.65625 C 10.734375 -8.25 11.148438 -8.867188 11.609375 -9.515625 C 11.585938 -9.679688 11.53125 -9.859375 11.4375 -10.046875 C 11.34375 -10.234375 11.21875 -10.398438 11.0625 -10.546875 C 10.90625 -10.703125 10.695312 -10.832031 10.4375 -10.9375 C 10.1875 -11.039062 9.890625 -11.09375 9.546875 -11.09375 C 9.160156 -11.09375 8.71875 -11.039062 8.21875 -10.9375 C 7.71875 -10.832031 7.191406 -10.65625 6.640625 -10.40625 C 6.085938 -10.15625 5.523438 -9.816406 4.953125 -9.390625 C 4.390625 -8.960938 3.835938 -8.429688 3.296875 -7.796875 C 2.503906 -6.847656 1.894531 -5.90625 1.46875 -4.96875 C 1.050781 -4.039062 0.84375 -3.191406 0.84375 -2.421875 C 0.84375 -1.679688 1.03125 -1.117188 1.40625 -0.734375 C 1.789062 -0.347656 2.304688 -0.15625 2.953125 -0.15625 C 3.640625 -0.15625 4.367188 -0.363281 5.140625 -0.78125 C 5.921875 -1.207031 6.691406 -1.773438 7.453125 -2.484375 Z M -3.375 14.8125 C -2.9375 14.8125 -2.484375 14.648438 -2.015625 14.328125 C -1.546875 14.003906 -1.066406 13.566406 -0.578125 13.015625 C -0.0976562 12.460938 0.375 11.816406 0.84375 11.078125 C 1.3125 10.347656 1.773438 9.566406 2.234375 8.734375 C 2.691406 7.898438 3.128906 7.046875 3.546875 6.171875 C 3.972656 5.304688 4.375 4.453125 4.75 3.609375 C 3.039062 4.503906 1.582031 5.4375 0.375 6.40625 C -0.832031 7.375 -1.820312 8.300781 -2.59375 9.1875 C -3.363281 10.070312 -3.921875 10.867188 -4.265625 11.578125 C -4.617188 12.285156 -4.796875 12.832031 -4.796875 13.21875 C -4.796875 13.6875 -4.691406 14.066406 -4.484375 14.359375 C -4.285156 14.660156 -3.914062 14.8125 -3.375 14.8125 Z M -3.375 14.8125 "/></g></g></g></svg>