<svg xmlns="http://www.w3.org/2000/svg" xmlns:xlink="http://www.w3.org/1999/xlink" width="1080" zoomAndPan="magnify" viewBox="0 0 810 525.000007" height="700" preserveAspectRatio="xMidYMid meet" version="1.0"><defs><g/><clipPath id="cb1626d48c"><path d="M 356.03125 157.199219 L 454.09375 157.199219 L 454.09375 366.800781 L 356.03125 366.800781 Z M 356.03125 157.199219 " clip-rule="nonzero"/></clipPath></defs><g clip-path="url(#cb1626d48c)"><path fill="#98619d" d="M 454.078125 271.121094 C 454.078125 271.113281 454.078125 271.109375 454.078125 271.101562 C 454.078125 271.054688 454.074219 271.011719 454.066406 270.96875 C 454.0625 270.960938 454.058594 270.957031 454.058594 270.949219 C 454.046875 270.90625 454.03125 270.863281 454.011719 270.828125 C 454.007812 270.816406 454 270.804688 453.992188 270.792969 C 453.96875 270.746094 453.9375 270.707031 453.902344 270.667969 L 451.457031 268.230469 C 450.726562 267.5 450.117188 266.628906 449.53125 265.789062 C 449.28125 265.433594 449.039062 265.089844 448.800781 264.769531 C 448.789062 264.757812 448.78125 264.746094 448.769531 264.734375 C 446.816406 262.503906 444.335938 260.578125 442.191406 258.976562 C 440.742188 257.738281 438.855469 257.109375 436.574219 257.109375 C 436.058594 257.109375 435.503906 257.140625 434.933594 257.207031 C 434.910156 257.207031 434.882812 257.214844 434.855469 257.21875 C 434.40625 257.332031 433.96875 257.519531 433.546875 257.703125 C 432.886719 257.992188 432.203125 258.285156 431.472656 258.285156 L 428.214844 258.285156 C 427.808594 258.285156 427.402344 258.277344 427 258.269531 C 426.59375 258.265625 426.183594 258.257812 425.78125 258.257812 C 424.179688 258.257812 422.480469 258.367188 420.855469 259.175781 C 418.765625 260.335938 415.949219 262.300781 414.394531 265.074219 C 413.386719 266.417969 411.136719 269.703125 410.777344 272.570312 C 409.066406 273.851562 407.523438 275.269531 406.375 277.09375 C 405.757812 278.066406 405.230469 279.417969 404.824219 280.847656 C 404.515625 272.152344 405.253906 263.554688 407.0625 255.320312 C 407.730469 251.972656 409.054688 247.925781 410.457031 243.640625 C 414.058594 232.617188 418.113281 220.207031 414.40625 211.234375 C 415.6875 211.847656 417 212.628906 418.109375 213.460938 C 418.972656 214.101562 420.179688 214.472656 421.34375 214.472656 C 421.601562 214.472656 421.859375 214.453125 422.109375 214.414062 C 423.246094 214.246094 423.777344 213.652344 424.246094 213.128906 C 424.460938 212.886719 424.664062 212.660156 424.933594 212.460938 C 425.46875 212.058594 426.71875 212.296875 427.253906 212.398438 L 427.535156 212.453125 C 429.410156 212.816406 431.179688 213.160156 432.691406 211.125 C 432.878906 210.871094 433.042969 210.628906 433.195312 210.398438 C 433.644531 209.722656 433.972656 209.230469 434.746094 208.835938 C 437.207031 207.574219 440.851562 202.746094 440.527344 199.402344 C 440.417969 198.285156 439.824219 196.816406 437.617188 196.179688 C 437.589844 196.171875 437.558594 196.164062 437.53125 196.15625 C 438.363281 195.476562 439.277344 194.613281 439.847656 193.730469 C 440.339844 192.972656 440.292969 192.191406 440.253906 191.503906 C 440.226562 191.003906 440.199219 190.535156 440.363281 190.089844 C 440.5625 189.550781 441.058594 189.238281 441.628906 188.875 C 442.199219 188.515625 442.84375 188.109375 443.238281 187.402344 C 444.519531 185.109375 444.808594 183.476562 444.09375 182.542969 C 443.832031 182.203125 443.492188 182.039062 443.214844 181.90625 C 443.050781 181.828125 442.90625 181.757812 442.820312 181.671875 C 442.613281 181.464844 442.480469 181.132812 442.339844 180.785156 C 442.273438 180.613281 442.203125 180.445312 442.128906 180.285156 C 441.472656 178.914062 440.957031 178.71875 439.753906 178.375 L 439.628906 178.339844 C 439.269531 178.238281 438.925781 178.070312 438.574219 177.882812 C 439.082031 174.378906 438.726562 171.691406 437.480469 169.691406 C 437.261719 169.339844 437.050781 168.972656 436.839844 168.605469 C 436.023438 167.171875 435.175781 165.695312 433.660156 164.792969 C 433.476562 164.6875 433.308594 164.585938 433.144531 164.492188 C 431.941406 163.789062 431.277344 163.402344 430.46875 162.203125 C 429.363281 160.570312 427.992188 160.589844 426.539062 160.609375 C 426.101562 160.613281 425.625 160.617188 425.136719 160.640625 C 424.53125 160.667969 423.902344 160.695312 423.375 160.601562 C 423.082031 160.546875 422.816406 160.464844 422.535156 160.375 C 421.90625 160.175781 421.195312 159.949219 420.300781 160.195312 C 419.839844 160.324219 419.363281 160.488281 418.902344 160.648438 C 418.4375 160.808594 417.953125 160.972656 417.488281 161.101562 C 417.023438 161.230469 416.566406 161.375 416.109375 161.527344 C 414.558594 160.242188 412.785156 159.195312 410.367188 158.144531 C 408.945312 157.527344 407.6875 157.746094 406.472656 157.953125 C 405.847656 158.0625 405.1875 158.164062 404.53125 158.171875 C 403.910156 158.171875 403.3125 158.121094 402.675781 158.066406 C 401.851562 157.996094 401.003906 157.925781 400.117188 157.96875 C 399.757812 157.988281 399.421875 158.050781 399.117188 158.15625 C 397.703125 158.65625 397.027344 159.925781 396.429688 161.042969 C 396 161.84375 395.59375 162.601562 394.972656 163.070312 C 393.75 163.992188 393.324219 164.542969 392.691406 166.019531 C 392.132812 167.332031 391.675781 168.667969 391.335938 170 C 391.09375 170.953125 390.921875 171.882812 390.8125 172.785156 C 390.796875 172.789062 390.785156 172.785156 390.769531 172.789062 C 387.9375 173.222656 385.839844 174.703125 383.996094 176.238281 C 382.785156 177.25 382.621094 178.394531 382.457031 179.5 C 382.363281 180.152344 382.273438 180.769531 381.976562 181.402344 C 381.875 181.621094 381.765625 181.835938 381.65625 182.054688 C 381.058594 183.246094 380.378906 184.59375 380.960938 186.222656 C 381.363281 187.339844 382.269531 187.851562 383.074219 188.300781 C 383.582031 188.585938 384.0625 188.855469 384.410156 189.257812 C 384.835938 189.757812 385.203125 190.292969 385.589844 190.859375 C 386.253906 191.832031 386.9375 192.839844 387.964844 193.632812 C 388.484375 194.03125 389.070312 194.359375 389.6875 194.640625 C 389.0625 196.964844 388.945312 199.457031 389.378906 201.574219 C 389.628906 202.800781 389.964844 204.082031 391.085938 205.140625 C 391.433594 205.464844 391.808594 205.746094 392.171875 206.015625 C 392.792969 206.476562 393.375 206.914062 393.746094 207.515625 C 393.898438 207.757812 394.042969 208.011719 394.1875 208.269531 C 394.996094 209.6875 395.910156 211.292969 397.960938 211.464844 C 398.410156 211.5 398.847656 211.417969 399.273438 211.339844 C 399.671875 211.265625 400.050781 211.191406 400.339844 211.25 C 400.628906 211.304688 400.941406 211.484375 401.277344 211.671875 C 401.683594 211.902344 402.144531 212.160156 402.675781 212.269531 C 404.375 212.601562 405.648438 211.757812 406.773438 211.015625 C 407.265625 210.691406 407.726562 210.386719 408.21875 210.160156 C 409.222656 209.707031 411.011719 209.949219 412.34375 210.386719 C 412.472656 210.425781 412.605469 210.476562 412.738281 210.527344 C 417.183594 219.117188 412.996094 231.9375 409.292969 243.257812 C 407.882812 247.578125 406.546875 251.660156 405.863281 255.066406 C 405.589844 256.320312 405.347656 257.582031 405.121094 258.847656 C 404.289062 255.464844 402.722656 252.09375 400.671875 249.382812 C 399.742188 248.15625 398.667969 247.054688 397.566406 246.058594 C 397.894531 245.214844 397.785156 243.917969 397.613281 242.542969 C 397.578125 242.238281 397.546875 241.972656 397.539062 241.8125 C 397.515625 241.339844 397.371094 240.804688 397.914062 240.71875 C 398.355469 240.648438 398.851562 240.691406 399.300781 240.667969 C 400.273438 240.609375 401.246094 240.511719 402.203125 240.339844 C 404.074219 240.011719 405.980469 239.421875 407.484375 238.222656 C 408.078125 237.746094 408.601562 237.175781 409.003906 236.53125 C 410.117188 234.746094 410.378906 232.757812 410.628906 230.835938 C 410.738281 229.988281 410.851562 229.113281 411.039062 228.285156 C 411.171875 227.699219 411.382812 227.097656 411.605469 226.460938 C 412.046875 225.199219 412.503906 223.894531 412.378906 222.5625 C 412.363281 222.382812 412.265625 222.21875 412.113281 222.117188 C 411.964844 222.011719 411.773438 221.984375 411.601562 222.035156 C 410.9375 222.226562 410.371094 222.617188 409.828125 222.996094 C 409.269531 223.382812 408.742188 223.746094 408.152344 223.878906 C 407.925781 223.929688 407.695312 223.953125 407.441406 223.953125 C 406.753906 223.953125 406.058594 223.769531 405.320312 223.570312 C 404.546875 223.363281 403.746094 223.148438 402.90625 223.144531 L 402.582031 223.140625 C 399.4375 223.140625 395.621094 223.582031 393.988281 227.027344 C 392.3125 230.558594 392.90625 234.503906 395.800781 239.097656 C 395.828125 239.140625 395.917969 239.261719 396.039062 239.417969 C 396.332031 239.808594 396.425781 239.910156 396.375 240.398438 C 396.324219 240.886719 396.292969 241.378906 396.316406 241.867188 C 396.324219 242.074219 396.359375 242.359375 396.402344 242.691406 C 396.554688 243.953125 396.578125 244.714844 396.539062 245.167969 C 396.550781 245.027344 395.652344 244.441406 395.519531 244.335938 C 395.222656 244.097656 394.875 243.886719 394.585938 243.644531 C 394.019531 243.171875 393.699219 242.394531 393.296875 241.792969 C 392.925781 241.226562 392.523438 240.664062 392.222656 240.058594 L 392.179688 239.976562 C 391.277344 238.289062 390.015625 236.136719 388.253906 234.429688 C 386.066406 232.3125 382.628906 231.046875 379.050781 231.046875 C 375.089844 231.046875 371.769531 232.574219 369.941406 235.230469 C 368.722656 237.003906 367.765625 239.011719 366.839844 240.953125 C 365.515625 243.734375 364.144531 246.613281 361.996094 248.765625 C 361.5 249.1875 360.925781 249.585938 360.371094 249.972656 C 358.796875 251.0625 357.167969 252.195312 356.734375 254.144531 C 356.566406 254.8125 356.179688 256.46875 356.179688 257.503906 C 356.179688 257.667969 356.167969 257.882812 356.152344 258.125 C 356.09375 259.136719 356.015625 260.519531 356.550781 261.316406 C 356.664062 261.488281 356.855469 261.589844 357.058594 261.589844 C 357.105469 261.589844 357.152344 261.582031 357.199219 261.570312 C 357.449219 261.511719 357.632812 261.304688 357.664062 261.050781 C 357.894531 259.082031 359.085938 258.316406 361.902344 258.316406 C 362.449219 258.316406 363.007812 258.339844 363.546875 258.367188 C 364.082031 258.390625 364.582031 258.414062 365.0625 258.414062 C 365.398438 258.414062 365.6875 258.402344 365.976562 258.375 C 366.433594 258.308594 366.921875 258.257812 367.394531 258.210938 C 368.882812 258.054688 370.421875 257.898438 371.539062 257.234375 C 373.902344 256.050781 375.316406 254.25 376.5625 252.507812 C 376.582031 252.484375 376.597656 252.457031 376.613281 252.425781 C 376.722656 252.207031 376.839844 251.972656 376.960938 251.726562 C 377.695312 250.21875 378.613281 248.351562 379.6875 247.261719 C 380.109375 246.941406 380.785156 246.777344 381.699219 246.777344 C 382.652344 246.777344 383.679688 246.953125 384.507812 247.089844 L 384.800781 247.140625 C 386.480469 247.421875 388 247.078125 389.289062 246.128906 C 389.714844 245.8125 390 245.378906 390.277344 244.953125 C 390.644531 244.390625 390.894531 244.046875 391.242188 243.996094 C 391.277344 243.992188 391.320312 243.988281 391.367188 243.988281 C 392.085938 243.988281 392.824219 244.136719 393.488281 244.410156 C 394.175781 244.691406 394.742188 245.269531 395.316406 245.738281 C 395.71875 246.066406 396.035156 246.515625 396.453125 246.820312 C 396.882812 247.128906 397.28125 247.449219 397.671875 247.835938 C 395.910156 247.984375 394.304688 248.742188 392.902344 249.867188 L 392.644531 250.066406 C 391.636719 250.855469 390.679688 251.597656 389.652344 252.230469 C 388.980469 252.648438 388.324219 252.984375 387.644531 253.265625 C 387.445312 253.347656 387.246094 253.429688 387.046875 253.507812 C 385.398438 254.179688 383.691406 254.871094 382.429688 256.339844 C 378.964844 260.378906 378.265625 264.089844 378.265625 268.765625 C 378.265625 270.957031 378.265625 272.40625 379.402344 274.386719 C 380.5 276.582031 381.628906 278.277344 383.839844 279.929688 C 384.445312 280.433594 385.117188 280.859375 385.765625 281.277344 C 386.929688 282.019531 388.03125 282.71875 388.824219 283.828125 C 388.84375 283.855469 388.863281 283.882812 388.886719 283.90625 C 389.488281 284.503906 389.921875 285.371094 390.378906 286.285156 C 390.863281 287.25 391.359375 288.246094 392.101562 288.984375 C 392.117188 289 392.132812 289.011719 392.152344 289.027344 C 392.160156 289.035156 392.167969 289.042969 392.179688 289.046875 C 392.222656 289.082031 392.273438 289.105469 392.324219 289.125 C 392.335938 289.128906 392.347656 289.132812 392.359375 289.136719 C 392.414062 289.152344 392.46875 289.164062 392.53125 289.164062 C 392.585938 289.164062 392.644531 289.15625 392.699219 289.140625 C 392.703125 289.140625 392.707031 289.136719 392.71875 289.132812 C 392.726562 289.132812 392.734375 289.125 392.742188 289.125 C 392.78125 289.109375 392.816406 289.09375 392.851562 289.070312 C 392.863281 289.0625 392.875 289.058594 392.886719 289.050781 C 392.921875 289.023438 392.957031 288.992188 392.988281 288.960938 C 392.988281 288.957031 392.992188 288.953125 392.996094 288.949219 C 393.027344 288.914062 393.054688 288.871094 393.078125 288.828125 C 393.082031 288.816406 393.085938 288.804688 393.089844 288.792969 C 393.109375 288.753906 393.121094 288.714844 393.128906 288.675781 C 393.128906 288.667969 393.132812 288.660156 393.136719 288.652344 C 393.136719 288.648438 393.136719 288.640625 393.140625 288.625 C 393.277344 287.78125 393.277344 286.96875 393.277344 286.179688 C 393.277344 285.4375 393.277344 284.738281 393.40625 284.09375 C 393.660156 282.296875 394.167969 281.039062 394.953125 279.46875 C 394.960938 279.457031 394.964844 279.445312 394.96875 279.429688 C 395.527344 278.097656 396.265625 276.828125 397.046875 275.480469 C 398.09375 273.675781 399.175781 271.808594 399.800781 269.777344 C 401.433594 265.292969 401.019531 260.953125 398.636719 257.5625 C 398.472656 257.324219 398.089844 256.914062 397.558594 256.34375 C 396.355469 255.042969 393.535156 252 393.625 250.910156 C 393.628906 250.847656 393.644531 250.839844 393.65625 250.828125 C 393.703125 250.792969 393.742188 250.746094 393.777344 250.699219 C 395.234375 249.570312 396.9375 248.894531 398.816406 249.050781 C 399.121094 249.394531 399.417969 249.75 399.695312 250.117188 C 402.285156 253.539062 404.125 258.261719 404.496094 262.4375 C 404.5 262.484375 404.519531 262.523438 404.53125 262.566406 C 403.433594 270.410156 403.238281 278.492188 403.949219 286.621094 C 403.953125 286.746094 403.957031 286.875 403.96875 286.992188 C 403.96875 287.03125 403.988281 287.0625 403.996094 287.097656 C 404.546875 293.066406 405.570312 299.058594 407.09375 304.984375 C 413.851562 330.855469 414.917969 350.710938 410.359375 365.675781 C 410.261719 366 410.441406 366.339844 410.765625 366.4375 C 410.824219 366.457031 410.882812 366.464844 410.941406 366.464844 C 411.203125 366.464844 411.445312 366.296875 411.527344 366.03125 C 416.15625 350.84375 415.09375 330.773438 408.277344 304.679688 C 406.730469 298.667969 405.699219 292.589844 405.167969 286.53125 C 405.140625 285.496094 405.3125 284.089844 405.625 282.648438 C 405.746094 282.5625 405.835938 282.429688 405.867188 282.273438 C 406.113281 281.011719 409.851562 280.042969 411.871094 279.960938 C 412.933594 281.082031 413.613281 282.996094 413.613281 284.929688 C 413.613281 285.261719 413.609375 285.601562 413.605469 285.945312 C 413.574219 288.484375 413.539062 291.363281 415.09375 293.433594 C 415.871094 294.46875 417.363281 295.027344 418.683594 295.519531 C 418.941406 295.613281 419.191406 295.707031 419.429688 295.800781 C 421.140625 296.488281 422.738281 296.957031 424.171875 297.195312 C 424.558594 297.257812 424.925781 297.308594 425.289062 297.355469 C 426.453125 297.511719 427.457031 297.644531 428.617188 298.222656 C 428.628906 298.230469 428.644531 298.238281 428.660156 298.242188 C 429.277344 298.488281 429.871094 298.957031 430.5 299.453125 C 431.117188 299.941406 431.820312 300.488281 432.652344 300.914062 C 432.664062 300.921875 432.675781 300.929688 432.6875 300.933594 C 432.710938 300.945312 432.738281 300.953125 432.761719 300.960938 C 432.777344 300.96875 432.792969 300.972656 432.8125 300.980469 C 432.859375 300.992188 432.90625 301 432.964844 301 C 433.023438 301 433.085938 300.988281 433.148438 300.96875 C 433.179688 300.957031 433.210938 300.949219 433.242188 300.933594 C 433.28125 300.910156 433.320312 300.886719 433.351562 300.859375 C 433.363281 300.847656 433.371094 300.839844 433.382812 300.832031 C 433.402344 300.808594 433.425781 300.785156 433.445312 300.761719 C 433.453125 300.75 433.460938 300.738281 433.472656 300.722656 C 433.488281 300.699219 433.5 300.675781 433.511719 300.648438 C 433.519531 300.636719 433.527344 300.621094 433.53125 300.605469 C 433.542969 300.578125 433.550781 300.546875 433.558594 300.519531 C 433.558594 300.507812 433.5625 300.5 433.566406 300.488281 C 434.113281 297.210938 434.390625 293.894531 434.660156 290.671875 C 435.015625 286.035156 433.773438 282.835938 430.859375 280.898438 C 427.898438 278.925781 423.15625 277.699219 418.484375 277.699219 C 416.011719 277.699219 413.78125 278.058594 412.019531 278.734375 C 410.902344 278.761719 408.128906 279.144531 406.316406 280.160156 C 406.632812 279.230469 407.003906 278.382812 407.40625 277.738281 C 408.472656 276.046875 409.898438 274.738281 411.539062 273.515625 C 411.847656 273.53125 412.167969 273.542969 412.523438 273.542969 C 413.464844 273.542969 414.453125 273.484375 415.414062 273.425781 C 416.722656 273.34375 418.128906 273.269531 419.214844 273.335938 C 420.761719 273.421875 422.429688 273.898438 424.039062 274.363281 C 424.707031 274.554688 425.339844 274.734375 425.957031 274.886719 C 428.105469 275.414062 430.101562 275.671875 432.054688 275.671875 C 434.847656 275.671875 437.617188 275.164062 441.035156 274.019531 C 444.691406 272.796875 453.453125 271.714844 453.542969 271.703125 C 453.550781 271.703125 453.554688 271.699219 453.558594 271.699219 C 453.664062 271.683594 453.757812 271.640625 453.835938 271.582031 C 453.847656 271.574219 453.859375 271.566406 453.867188 271.558594 C 453.902344 271.527344 453.929688 271.496094 453.957031 271.460938 C 453.960938 271.457031 453.964844 271.453125 453.96875 271.445312 C 454 271.402344 454.023438 271.359375 454.039062 271.308594 C 454.042969 271.304688 454.042969 271.300781 454.046875 271.296875 C 454.050781 271.289062 454.046875 271.28125 454.050781 271.277344 C 454.0625 271.234375 454.070312 271.195312 454.074219 271.152344 C 454.074219 271.144531 454.078125 271.132812 454.078125 271.121094 Z M 439.417969 179.550781 C 440.445312 179.84375 440.578125 179.882812 441.027344 180.8125 C 441.089844 180.949219 441.148438 181.09375 441.207031 181.238281 C 441.378906 181.667969 441.570312 182.152344 441.953125 182.535156 C 442.1875 182.765625 442.453125 182.894531 442.683594 183.007812 C 442.882812 183.101562 443.039062 183.175781 443.125 183.289062 C 443.394531 183.640625 443.308594 184.777344 442.171875 186.808594 C 441.929688 187.242188 441.464844 187.535156 440.976562 187.847656 C 440.3125 188.265625 439.5625 188.738281 439.214844 189.667969 C 438.960938 190.351562 439 191 439.03125 191.574219 C 439.066406 192.171875 439.09375 192.644531 438.820312 193.066406 C 438.175781 194.066406 436.972656 195.074219 436.078125 195.746094 C 436.03125 195.78125 435.992188 195.824219 435.957031 195.871094 C 432.878906 195.566406 429.5 196.617188 426.460938 197.5625 C 425.699219 197.800781 424.980469 198.023438 424.296875 198.21875 L 423.957031 198.3125 C 424.683594 196.792969 425.644531 195.085938 427.027344 194.046875 C 427.523438 193.6875 428.164062 193.34375 428.839844 192.980469 C 430.472656 192.105469 432.324219 191.113281 433.066406 189.378906 C 434.660156 185.558594 428.972656 179.183594 427.746094 177.871094 C 427.71875 176.667969 427.34375 175.707031 426.960938 174.859375 C 428.222656 175.230469 429.609375 175.828125 430.960938 176.410156 C 432.179688 176.9375 433.335938 177.433594 434.371094 177.753906 C 434.75 177.875 435.136719 177.953125 435.507812 178.027344 C 435.933594 178.113281 436.332031 178.195312 436.699219 178.328125 C 437.054688 178.457031 437.398438 178.640625 437.761719 178.835938 C 438.234375 179.089844 438.722656 179.351562 439.289062 179.511719 Z M 399.164062 185.550781 C 396.792969 181.035156 396.386719 178.289062 397.625 175.117188 C 397.804688 174.65625 397.941406 174.179688 398.078125 173.714844 C 398.3125 172.910156 398.53125 172.148438 398.945312 171.511719 C 399.207031 171.109375 399.503906 170.695312 399.792969 170.296875 C 400.015625 169.988281 400.234375 169.679688 400.449219 169.367188 L 400.480469 169.320312 C 401.59375 167.679688 402.140625 167.355469 402.304688 167.292969 C 402.308594 167.300781 402.316406 167.3125 402.320312 167.328125 C 402.316406 167.410156 402.242188 167.605469 402.191406 167.734375 C 402.054688 168.089844 401.886719 168.53125 401.992188 168.992188 C 402.128906 169.585938 402.554688 170.144531 402.925781 170.636719 C 403.089844 170.851562 403.242188 171.054688 403.351562 171.234375 C 403.542969 171.546875 403.738281 171.863281 403.894531 172.1875 C 403.902344 172.621094 404.007812 173.070312 404.21875 173.539062 C 404.207031 174.046875 404.140625 174.554688 404.074219 175.050781 C 404.011719 175.535156 403.949219 175.996094 403.949219 176.414062 C 403.949219 176.433594 403.949219 176.453125 403.953125 176.472656 C 404.042969 177.363281 404.242188 178.183594 404.554688 178.929688 C 404.566406 178.96875 404.585938 179.011719 404.605469 179.046875 C 405.292969 180.617188 406.457031 181.839844 408.058594 182.640625 C 408.640625 182.96875 409.253906 183.226562 409.851562 183.472656 C 411.253906 184.050781 412.460938 184.550781 412.949219 185.847656 C 412.957031 185.871094 412.964844 185.890625 412.976562 185.90625 C 413.367188 186.691406 413.648438 187.546875 413.945312 188.453125 C 414.375 189.765625 414.816406 191.113281 415.632812 192.277344 C 413.808594 193.121094 411.941406 194.160156 410.671875 195.5 C 408.023438 191.53125 403.652344 188.292969 399.164062 185.550781 Z M 410.660156 165.195312 C 411.410156 165.148438 412.1875 165.101562 412.976562 164.976562 C 413.273438 164.929688 413.570312 164.875 413.871094 164.820312 C 414.4375 164.71875 415.023438 164.609375 415.585938 164.554688 C 417.199219 164.398438 417.582031 164.859375 418.417969 165.867188 C 418.65625 166.15625 418.925781 166.484375 419.257812 166.832031 C 419.953125 167.5625 420.800781 167.890625 421.617188 168.203125 C 422.1875 168.421875 422.726562 168.628906 423.191406 168.964844 C 424.070312 169.597656 424.648438 170.863281 424.910156 172.722656 C 424.980469 173.242188 425.136719 173.714844 425.320312 174.164062 C 425.328125 174.195312 425.339844 174.222656 425.355469 174.25 C 425.464844 174.523438 425.585938 174.792969 425.707031 175.050781 C 426.144531 176.003906 426.558594 176.898438 426.527344 178.105469 C 426.527344 178.121094 426.53125 178.136719 426.53125 178.152344 C 426.53125 178.160156 426.53125 178.167969 426.53125 178.175781 C 426.539062 178.257812 427.203125 186.632812 420.390625 190.179688 C 419.78125 190.496094 418.976562 190.835938 418.042969 191.226562 C 417.640625 191.398438 417.214844 191.574219 416.777344 191.765625 C 415.980469 190.71875 415.550781 189.433594 415.109375 188.074219 C 414.8125 187.175781 414.507812 186.246094 414.085938 185.390625 C 413.402344 183.617188 411.835938 182.972656 410.320312 182.34375 C 409.761719 182.113281 409.179688 181.871094 408.636719 181.5625 C 407.976562 181.234375 407.417969 180.820312 406.945312 180.34375 C 407.664062 180.648438 408.414062 180.910156 409.203125 181.128906 C 409.488281 181.210938 409.769531 181.300781 410.058594 181.390625 C 411.402344 181.808594 412.78125 182.238281 414.265625 182.238281 C 414.621094 182.238281 414.984375 182.214844 415.355469 182.15625 C 418.394531 181.59375 422.65625 178.734375 423.371094 176.058594 C 423.875 174.539062 423.683594 172.589844 422.847656 170.710938 C 421.203125 166.980469 416.195312 164.910156 411.445312 165.996094 C 409.140625 166.507812 406.964844 166.988281 405.261719 169.023438 C 404.871094 169.527344 404.550781 170.007812 404.316406 170.480469 C 404.191406 170.289062 404.046875 170.09375 403.902344 169.902344 C 403.601562 169.507812 403.265625 169.058594 403.1875 168.71875 C 403.164062 168.617188 403.265625 168.347656 403.335938 168.171875 C 403.421875 167.9375 403.527344 167.664062 403.542969 167.382812 C 404.914062 166.273438 405.714844 166.070312 407.695312 165.566406 C 408.65625 165.320312 409.628906 165.261719 410.660156 165.195312 Z M 405.636719 178.324219 C 405.40625 177.734375 405.246094 177.089844 405.171875 176.382812 C 405.175781 176.050781 405.230469 175.644531 405.289062 175.214844 C 405.289062 175.210938 405.289062 175.210938 405.289062 175.210938 C 406.371094 176.644531 408.054688 178.320312 410.261719 178.800781 C 412.972656 179.417969 415.707031 177.550781 417.703125 176.183594 C 417.921875 176.03125 418.132812 175.886719 418.324219 175.761719 L 418.453125 175.679688 C 419.46875 175.042969 420.734375 174.25 420.5 172.710938 C 420.320312 171.78125 419.617188 170.851562 419.046875 170.101562 C 418.953125 169.976562 418.859375 169.855469 418.765625 169.726562 C 416.867188 167.273438 414.648438 166.898438 411.992188 168.570312 C 410.492188 169.515625 407.980469 171.09375 408.3125 173.246094 C 408.515625 174.390625 409.398438 175.230469 410.90625 175.734375 C 412.3125 176.296875 413.304688 175.898438 414.464844 175.316406 C 415.136719 174.964844 416.308594 174.210938 416.589844 173.121094 C 416.726562 172.589844 416.632812 172.050781 416.3125 171.558594 C 416.304688 171.546875 416.292969 171.53125 416.285156 171.519531 C 415.605469 170.636719 413.378906 170.089844 412.332031 170.367188 C 410.59375 170.808594 410.523438 171.8125 410.578125 172.222656 C 410.703125 173.214844 411.882812 174.164062 413.105469 174.597656 C 412.492188 174.832031 412.007812 174.859375 411.328125 174.585938 C 410.230469 174.222656 409.636719 173.714844 409.519531 173.046875 C 409.3125 171.699219 411.398438 170.386719 412.644531 169.601562 C 414.753906 168.273438 416.296875 168.535156 417.789062 170.460938 C 417.878906 170.582031 417.976562 170.710938 418.074219 170.839844 C 418.566406 171.488281 419.175781 172.289062 419.296875 172.917969 C 419.398438 173.59375 418.800781 174.019531 417.804688 174.644531 L 417.65625 174.738281 C 417.453125 174.875 417.234375 175.023438 417.011719 175.175781 C 415.203125 176.414062 412.722656 178.113281 410.527344 177.609375 C 408.535156 177.175781 406.996094 175.511719 406.039062 174.164062 C 405.785156 173.84375 405.585938 173.550781 405.433594 173.273438 C 405.414062 172.792969 405.292969 172.347656 405.121094 171.9375 C 405.183594 171.3125 405.542969 170.65625 406.210938 169.789062 C 407.539062 168.207031 409.175781 167.75 411.714844 167.1875 C 415.84375 166.242188 420.335938 168.042969 421.730469 171.207031 C 422.433594 172.785156 422.613281 174.457031 422.203125 175.710938 C 421.671875 177.6875 417.96875 180.433594 415.152344 180.953125 C 413.542969 181.195312 411.957031 180.703125 410.421875 180.226562 C 410.128906 180.132812 409.835938 180.042969 409.539062 179.957031 C 408.113281 179.558594 406.835938 179.019531 405.636719 178.324219 Z M 414.386719 173.621094 C 413.257812 173.621094 411.855469 172.609375 411.789062 172.070312 C 411.761719 171.851562 412.226562 171.652344 412.636719 171.546875 C 412.738281 171.519531 412.859375 171.507812 412.996094 171.507812 C 413.777344 171.507812 415.015625 171.910156 415.300781 172.25 C 415.421875 172.441406 415.457031 172.625 415.40625 172.816406 C 415.335938 173.09375 415.082031 173.410156 414.710938 173.710938 C 414.617188 173.652344 414.503906 173.621094 414.386719 173.621094 Z M 410.496094 200.167969 C 409.414062 196.179688 414.664062 193.96875 418.515625 192.351562 C 419.472656 191.949219 420.300781 191.605469 420.957031 191.261719 C 426.542969 188.355469 427.582031 182.550781 427.746094 179.707031 C 429.847656 182.183594 432.921875 186.554688 431.941406 188.90625 C 431.367188 190.242188 429.789062 191.085938 428.261719 191.90625 C 427.546875 192.289062 426.871094 192.652344 426.300781 193.066406 C 424.378906 194.507812 423.203125 197.003906 422.414062 198.730469 C 422.066406 198.8125 421.71875 198.886719 421.375 198.9375 L 420.066406 199.125 C 416.929688 199.578125 413.703125 200.039062 410.496094 200.167969 Z M 417.8125 162.28125 C 418.316406 162.140625 418.816406 161.96875 419.296875 161.804688 C 419.761719 161.644531 420.203125 161.492188 420.628906 161.375 C 421.171875 161.222656 421.585938 161.355469 422.164062 161.539062 C 422.457031 161.632812 422.789062 161.738281 423.160156 161.804688 C 423.820312 161.921875 424.515625 161.890625 425.191406 161.859375 C 425.667969 161.839844 426.128906 161.835938 426.554688 161.832031 C 427.949219 161.8125 428.71875 161.800781 429.457031 162.890625 C 430.421875 164.316406 431.257812 164.804688 432.527344 165.546875 C 432.6875 165.640625 432.855469 165.738281 433.03125 165.84375 C 434.273438 166.578125 435.003906 167.859375 435.777344 169.210938 C 435.996094 169.59375 436.214844 169.972656 436.441406 170.339844 C 437.484375 172.011719 437.800781 174.304688 437.417969 177.308594 C 437.316406 177.265625 437.21875 177.21875 437.113281 177.179688 C 436.664062 177.015625 436.199219 176.921875 435.753906 176.832031 C 435.394531 176.761719 435.054688 176.691406 434.734375 176.59375 C 433.761719 176.289062 432.636719 175.804688 431.445312 175.289062 C 429.722656 174.550781 427.949219 173.789062 426.351562 173.449219 C 426.25 173.15625 426.164062 172.859375 426.121094 172.554688 C 425.8125 170.351562 425.066406 168.8125 423.90625 167.976562 C 423.3125 167.546875 422.675781 167.304688 422.058594 167.066406 C 421.335938 166.785156 420.648438 166.523438 420.144531 165.992188 C 419.84375 165.675781 419.597656 165.378906 419.359375 165.089844 C 418.449219 163.992188 417.730469 163.121094 415.46875 163.339844 C 415.125 163.375 414.78125 163.425781 414.441406 163.480469 C 415.542969 163 416.667969 162.597656 417.8125 162.28125 Z M 392.519531 170.300781 C 392.84375 169.035156 393.28125 167.753906 393.816406 166.503906 C 394.363281 165.226562 394.664062 164.835938 395.710938 164.046875 C 396.546875 163.417969 397.035156 162.503906 397.503906 161.621094 C 398.046875 160.609375 398.558594 159.652344 399.523438 159.3125 C 399.714844 159.242188 399.9375 159.203125 400.179688 159.191406 C 400.980469 159.152344 401.753906 159.214844 402.574219 159.285156 C 403.203125 159.339844 403.859375 159.394531 404.523438 159.394531 C 404.53125 159.394531 404.539062 159.394531 404.546875 159.394531 C 405.320312 159.394531 406.011719 159.277344 406.679688 159.160156 C 407.8125 158.964844 408.789062 158.792969 409.878906 159.265625 C 411.894531 160.144531 413.433594 161.011719 414.765625 162.023438 C 413.425781 162.558594 412.121094 163.207031 410.867188 163.960938 C 410.773438 163.964844 410.675781 163.972656 410.582031 163.976562 C 409.542969 164.042969 408.464844 164.109375 407.363281 164.390625 C 405.492188 164.867188 404.460938 165.132812 402.992188 166.261719 C 402.800781 166.125 402.609375 166.078125 402.472656 166.0625 C 401.664062 165.984375 400.730469 166.773438 399.46875 168.636719 L 399.4375 168.679688 C 399.230469 168.984375 399.015625 169.285156 398.796875 169.585938 C 398.503906 169.996094 398.195312 170.421875 397.921875 170.847656 C 397.410156 171.636719 397.152344 172.519531 396.902344 173.375 C 396.769531 173.832031 396.644531 174.261719 396.484375 174.671875 C 395.285156 177.75 395.46875 180.523438 397.238281 184.402344 C 396.90625 184.207031 396.578125 184.019531 396.25 183.832031 C 396.246094 183.832031 396.246094 183.832031 396.246094 183.828125 C 390.460938 180.410156 391.929688 172.609375 392.519531 170.300781 Z M 386.597656 190.175781 C 386.210938 189.605469 385.808594 189.015625 385.335938 188.464844 C 384.847656 187.902344 384.222656 187.550781 383.671875 187.238281 C 382.96875 186.84375 382.359375 186.503906 382.113281 185.8125 C 381.703125 184.679688 382.1875 183.714844 382.746094 182.605469 C 382.863281 182.378906 382.976562 182.148438 383.082031 181.921875 C 383.453125 181.125 383.566406 180.359375 383.664062 179.679688 C 383.8125 178.679688 383.925781 177.890625 384.78125 177.179688 C 386.679688 175.597656 388.433594 174.460938 390.699219 174.046875 C 390.53125 177.003906 391.097656 179.609375 392.355469 181.660156 C 391.804688 181.355469 391.261719 181.054688 390.738281 180.761719 C 390.441406 180.597656 390.070312 180.703125 389.90625 180.996094 C 389.742188 181.289062 389.847656 181.664062 390.140625 181.828125 C 390.785156 182.1875 391.453125 182.558594 392.136719 182.933594 C 398.410156 186.398438 406.183594 190.691406 409.875 196.519531 C 409.214844 197.570312 408.925781 198.78125 409.238281 200.199219 C 409.039062 200.199219 408.839844 200.207031 408.636719 200.207031 C 408.003906 200.203125 407.363281 200.136719 406.714844 200.035156 C 406.703125 200.019531 406.691406 200.007812 406.675781 199.996094 C 403.507812 197.738281 399.785156 196.605469 396.1875 195.507812 C 395.476562 195.292969 394.765625 195.074219 394.0625 194.851562 C 393.761719 194.753906 393.445312 194.660156 393.128906 194.5625 C 392.40625 194.34375 391.644531 194.109375 390.910156 193.828125 C 390.835938 193.738281 390.738281 193.667969 390.621094 193.632812 C 390.539062 193.609375 390.453125 193.601562 390.375 193.609375 C 389.765625 193.34375 389.191406 193.042969 388.710938 192.667969 C 387.839844 191.996094 387.238281 191.113281 386.597656 190.175781 Z M 407.714844 209.054688 C 407.132812 209.316406 406.609375 209.664062 406.101562 210 C 405.035156 210.703125 404.117188 211.3125 402.914062 211.074219 C 402.574219 211.007812 402.234375 210.816406 401.878906 210.613281 C 401.476562 210.382812 401.058594 210.148438 400.574219 210.054688 C 400.058594 209.953125 399.542969 210.050781 399.046875 210.140625 C 398.6875 210.210938 398.347656 210.273438 398.058594 210.25 C 396.652344 210.132812 396.003906 208.992188 395.25 207.667969 C 395.097656 207.398438 394.945312 207.132812 394.785156 206.878906 C 394.292969 206.078125 393.585938 205.550781 392.902344 205.042969 C 392.550781 204.78125 392.21875 204.53125 391.925781 204.253906 C 391.144531 203.519531 390.839844 202.628906 390.574219 201.335938 C 390.1875 199.4375 390.285156 197.207031 390.828125 195.101562 C 391.480469 195.339844 392.144531 195.539062 392.773438 195.730469 C 393.085938 195.828125 393.394531 195.921875 393.691406 196.015625 C 394.398438 196.242188 395.113281 196.457031 395.832031 196.675781 C 398.019531 197.34375 400.253906 198.023438 402.351562 198.960938 C 401.363281 198.675781 400.339844 198.378906 399.351562 198.15625 C 398.59375 197.988281 397.789062 197.949219 397.011719 197.914062 C 396.203125 197.878906 395.445312 197.84375 394.800781 197.671875 C 394.476562 197.582031 394.140625 197.777344 394.050781 198.101562 C 393.964844 198.429688 394.15625 198.761719 394.484375 198.851562 C 395.257812 199.054688 396.121094 199.097656 396.953125 199.132812 C 397.679688 199.167969 398.433594 199.203125 399.082031 199.347656 C 400.042969 199.5625 401.011719 199.84375 402.039062 200.140625 C 404.191406 200.769531 406.417969 201.414062 408.632812 201.429688 C 412.535156 201.449219 416.453125 200.882812 420.242188 200.335938 L 421.546875 200.148438 C 422.445312 200.019531 423.316406 199.769531 424.160156 199.527344 L 424.628906 199.394531 C 425.328125 199.195312 426.054688 198.96875 426.828125 198.730469 C 430.253906 197.660156 434.140625 196.449219 437.273438 197.351562 C 438.539062 197.71875 439.203125 198.425781 439.308594 199.523438 C 439.574219 202.273438 436.308594 206.664062 434.1875 207.75 C 433.128906 208.292969 432.667969 208.988281 432.175781 209.722656 C 432.035156 209.9375 431.882812 210.164062 431.707031 210.398438 C 430.65625 211.816406 429.628906 211.617188 427.769531 211.257812 L 427.480469 211.203125 C 426.671875 211.046875 425.164062 210.761719 424.195312 211.484375 C 423.832031 211.757812 423.566406 212.054688 423.332031 212.316406 C 422.910156 212.792969 422.628906 213.105469 421.925781 213.210938 C 420.886719 213.363281 419.621094 213.066406 418.84375 212.484375 C 417.011719 211.113281 414.667969 209.867188 412.722656 209.230469 C 412.203125 209.058594 409.507812 208.242188 407.714844 209.054688 Z M 410.449219 226.0625 C 410.226562 226.703125 409.992188 227.363281 409.847656 228.019531 C 409.648438 228.902344 409.53125 229.808594 409.414062 230.683594 C 409.171875 232.558594 408.941406 234.328125 407.96875 235.886719 C 406.097656 238.882812 401.480469 239.425781 397.894531 239.503906 C 398.820312 236.476562 401.417969 232.863281 403.917969 230.324219 C 404.804688 229.421875 405.925781 228.75 407.109375 228.039062 C 408.375 227.28125 409.664062 226.503906 410.671875 225.417969 C 410.601562 225.632812 410.527344 225.847656 410.449219 226.0625 Z M 396.835938 238.453125 C 394.144531 234.183594 393.589844 230.71875 395.09375 227.554688 C 396.425781 224.742188 399.625 224.367188 402.582031 224.367188 L 402.894531 224.367188 C 403.582031 224.371094 404.273438 224.558594 405.003906 224.753906 C 405.785156 224.960938 406.59375 225.179688 407.441406 225.179688 C 407.785156 225.179688 408.105469 225.144531 408.421875 225.074219 C 408.996094 224.945312 409.5 224.675781 409.953125 224.382812 C 409.050781 225.441406 407.792969 226.203125 406.480469 226.992188 C 405.28125 227.710938 404.042969 228.457031 403.046875 229.46875 C 401.097656 231.445312 398.167969 235.085938 396.914062 238.554688 C 396.878906 238.507812 396.847656 238.46875 396.835938 238.453125 Z M 367.945312 241.480469 C 368.847656 239.582031 369.785156 237.617188 370.949219 235.925781 C 372.546875 233.605469 375.5 232.273438 379.050781 232.273438 C 382.316406 232.273438 385.441406 233.40625 387.402344 235.308594 C 389.042969 236.898438 390.242188 238.949219 391.101562 240.554688 L 391.128906 240.605469 C 391.261719 240.871094 391.511719 241.28125 391.796875 241.726562 C 388.5625 239.8125 385.109375 238.640625 381.957031 238.445312 C 381.660156 238.445312 381.347656 238.441406 381.023438 238.433594 C 379.238281 238.394531 377.214844 238.347656 375.476562 239.339844 C 374.21875 240.125 373.074219 241.15625 371.964844 242.152344 C 371.128906 242.902344 370.339844 243.613281 369.542969 244.183594 L 368.953125 244.621094 C 367.746094 245.515625 366.601562 246.363281 365.554688 247.546875 C 364.890625 248.300781 363.921875 248.917969 362.972656 249.511719 C 365.203125 247.226562 366.597656 244.308594 367.945312 241.480469 Z M 391.070312 242.792969 C 390.148438 242.921875 389.652344 243.683594 389.253906 244.289062 C 389.027344 244.636719 388.8125 244.964844 388.5625 245.152344 C 387.53125 245.910156 386.367188 246.167969 385.003906 245.941406 L 384.710938 245.890625 C 383.839844 245.746094 382.753906 245.558594 381.699219 245.558594 C 380.464844 245.558594 379.550781 245.8125 378.898438 246.332031 C 378.882812 246.347656 378.863281 246.363281 378.847656 246.378906 C 377.621094 247.605469 376.644531 249.59375 375.863281 251.191406 C 375.75 251.417969 375.644531 251.636719 375.542969 251.84375 C 374.140625 253.800781 372.878906 255.207031 370.976562 256.15625 C 370.960938 256.164062 370.949219 256.171875 370.933594 256.179688 C 370.046875 256.710938 368.636719 256.859375 367.269531 257 C 366.789062 257.046875 366.289062 257.101562 365.839844 257.164062 C 365.277344 257.214844 364.464844 257.1875 363.605469 257.148438 C 363.050781 257.125 362.476562 257.097656 361.90625 257.097656 C 360.492188 257.097656 358.929688 257.257812 357.835938 258.140625 C 357.972656 256.894531 358.296875 255.585938 359.023438 254.433594 C 359.726562 253.324219 360.691406 252.566406 361.980469 251.617188 C 362.445312 251.277344 362.953125 250.960938 363.492188 250.625 C 364.558594 249.960938 365.660156 249.273438 366.472656 248.355469 C 367.433594 247.265625 368.527344 246.457031 369.683594 245.601562 L 370.265625 245.167969 C 371.105469 244.566406 371.921875 243.832031 372.785156 243.058594 C 373.851562 242.097656 374.957031 241.101562 376.101562 240.386719 C 377.527344 239.574219 379.371094 239.617188 380.996094 239.652344 C 381.328125 239.660156 381.648438 239.664062 381.917969 239.664062 C 384.808594 239.84375 388.109375 240.976562 391.175781 242.785156 C 391.144531 242.789062 391.101562 242.789062 391.070312 242.792969 Z M 389.789062 283.082031 C 388.863281 281.804688 387.621094 281.015625 386.425781 280.25 C 385.777344 279.839844 385.167969 279.449219 384.601562 278.980469 C 382.546875 277.441406 381.542969 275.933594 380.480469 273.816406 C 379.492188 272.085938 379.492188 270.910156 379.492188 268.773438 C 379.492188 264.371094 380.136719 260.890625 383.359375 257.136719 C 384.425781 255.894531 385.921875 255.289062 387.507812 254.644531 C 387.710938 254.5625 387.910156 254.480469 388.113281 254.398438 C 388.625 254.1875 389.128906 253.941406 389.628906 253.664062 C 388.527344 255.429688 387.757812 257.34375 387.386719 259.015625 C 385.976562 265.339844 388.558594 276.359375 390.722656 284.332031 C 390.449219 283.878906 390.148438 283.449219 389.789062 283.082031 Z M 396.664062 257.175781 C 397.105469 257.648438 397.519531 258.097656 397.636719 258.265625 C 399.785156 261.320312 400.144531 265.265625 398.644531 269.394531 C 398.050781 271.320312 397 273.125 395.988281 274.871094 C 395.226562 276.1875 394.4375 277.546875 393.851562 278.945312 C 393.035156 280.578125 392.472656 281.980469 392.203125 283.894531 C 392.148438 284.164062 392.117188 284.445312 392.097656 284.726562 C 389.925781 276.820312 387.1875 265.527344 388.578125 259.277344 C 389.113281 256.871094 390.53125 253.910156 392.574219 251.789062 C 393.105469 253.246094 394.804688 255.167969 396.664062 257.175781 Z M 429.140625 297.125 C 427.808594 296.464844 426.664062 296.3125 425.453125 296.148438 C 425.101562 296.105469 424.746094 296.054688 424.375 295.996094 C 423.027344 295.769531 421.515625 295.324219 419.882812 294.671875 C 419.640625 294.574219 419.378906 294.480469 419.109375 294.378906 C 417.949219 293.945312 416.636719 293.453125 416.070312 292.703125 C 414.769531 290.96875 414.800781 288.308594 414.828125 285.964844 C 414.832031 285.613281 414.835938 285.269531 414.835938 284.933594 C 414.835938 283.453125 414.453125 281.542969 413.460938 280.019531 C 415.359375 280.191406 416.796875 280.753906 418.394531 281.929688 C 418.878906 282.285156 419.351562 282.625 419.820312 282.957031 C 421.828125 284.390625 423.722656 285.742188 425.285156 287.746094 C 426.5 289.308594 427.519531 291.277344 428.507812 293.183594 C 428.792969 293.738281 429.078125 294.285156 429.355469 294.804688 C 430.03125 296.066406 430.703125 297.34375 431.332031 298.554688 C 431.308594 298.535156 431.28125 298.519531 431.257812 298.5 C 430.566406 297.953125 429.910156 297.4375 429.140625 297.125 Z M 430.179688 281.914062 C 432.730469 283.613281 433.765625 286.367188 433.441406 290.585938 C 433.226562 293.15625 432.996094 295.800781 432.636719 298.421875 C 431.945312 297.082031 431.195312 295.644531 430.433594 294.230469 C 430.15625 293.710938 429.875 293.171875 429.59375 292.621094 C 428.582031 290.667969 427.535156 288.648438 426.25 286.996094 C 424.578125 284.851562 422.613281 283.449219 420.53125 281.964844 C 420.066406 281.632812 419.597656 281.296875 419.121094 280.949219 C 417.898438 280.050781 416.765625 279.464844 415.5 279.125 C 416.433594 278.992188 417.433594 278.925781 418.484375 278.925781 C 422.859375 278.925781 427.453125 280.097656 430.179688 281.914062 Z M 415.394531 265.773438 C 415.414062 265.75 415.425781 265.726562 415.441406 265.703125 C 416.851562 263.164062 419.488281 261.332031 421.425781 260.257812 C 422.796875 259.570312 424.328125 259.476562 425.78125 259.476562 C 426.175781 259.476562 426.578125 259.484375 426.976562 259.492188 C 427.390625 259.5 427.800781 259.507812 428.214844 259.507812 L 431.472656 259.507812 C 432.457031 259.507812 433.292969 259.144531 434.03125 258.824219 C 434.414062 258.660156 434.773438 258.503906 435.113281 258.414062 C 437.847656 258.117188 439.867188 258.597656 441.425781 259.929688 C 443.546875 261.515625 445.960938 263.386719 447.835938 265.519531 C 448.0625 265.824219 448.292969 266.152344 448.527344 266.488281 C 449.117188 267.332031 449.785156 268.285156 450.59375 269.09375 L 451.730469 270.226562 C 450.304688 269.796875 449.078125 268.886719 447.800781 267.933594 C 447.464844 267.683594 447.125 267.429688 446.78125 267.1875 C 444.347656 265.449219 441.386719 263.632812 437.90625 263.320312 C 435.949219 263.140625 434.40625 263.445312 432.597656 263.859375 C 431.171875 264.1875 429.761719 264.230469 428.265625 264.277344 C 427.675781 264.296875 427.085938 264.3125 426.488281 264.351562 C 424.738281 264.457031 423.179688 265.054688 421.730469 265.65625 C 418.886719 266.839844 416.695312 268.394531 414.375 270.042969 C 413.984375 270.316406 413.59375 270.59375 413.207031 270.863281 C 412.886719 271.082031 412.566406 271.296875 412.246094 271.515625 C 412.933594 269.226562 414.601562 266.828125 415.394531 265.773438 Z M 440.644531 272.863281 C 437.359375 273.964844 434.707031 274.457031 432.054688 274.457031 C 430.199219 274.457031 428.300781 274.210938 426.246094 273.703125 C 425.65625 273.558594 425.035156 273.378906 424.375 273.191406 C 422.703125 272.710938 420.96875 272.21875 419.285156 272.121094 C 418.960938 272.101562 418.617188 272.089844 418.242188 272.089844 C 417.296875 272.089844 416.300781 272.152344 415.339844 272.210938 C 414.644531 272.253906 413.929688 272.296875 413.242188 272.316406 C 413.460938 272.167969 413.675781 272.023438 413.898438 271.875 C 414.296875 271.59375 414.691406 271.316406 415.082031 271.039062 C 417.347656 269.429688 419.484375 267.914062 422.203125 266.785156 C 423.609375 266.199219 425.003906 265.664062 426.5625 265.570312 C 427.148438 265.535156 427.726562 265.515625 428.304688 265.496094 C 429.792969 265.453125 431.328125 265.402344 432.875 265.050781 C 434.632812 264.644531 436.015625 264.371094 437.796875 264.535156 C 440.988281 264.824219 443.769531 266.539062 446.074219 268.179688 C 446.410156 268.421875 446.738281 268.667969 447.070312 268.910156 C 448.058594 269.648438 449.066406 270.394531 450.191406 270.933594 C 447.246094 271.367188 443.003906 272.078125 440.644531 272.863281 Z M 440.644531 272.863281 " fill-opacity="1" fill-rule="nonzero"/></g><g fill="#343642" fill-opacity="1"><g transform="translate(216.10305, 186.004954)"><g><path d="M 8.546875 -17.28125 L 11.625 -17.28125 C 12.519531 -19.1875 13.269531 -21.3125 13.875 -23.65625 L 6.8125 -23.65625 C 7.414062 -21.75 7.992188 -19.625 8.546875 -17.28125 Z M 22.96875 -18.21875 L 34.875 -18.21875 L 34.875 -15.6875 L 31.046875 -15.6875 L 31.046875 2.6875 L 28.328125 2.6875 L 28.328125 -15.6875 L 22.8125 -15.6875 C 22.53125 -11.195312 21.984375 -7.585938 21.171875 -4.859375 C 20.359375 -2.128906 19.179688 0.332031 17.640625 2.53125 L 15.578125 0.71875 C 16.859375 -1.132812 17.820312 -3.046875 18.46875 -5.015625 C 19.125 -6.984375 19.617188 -9.65625 19.953125 -13.03125 C 20.296875 -16.414062 20.46875 -20.910156 20.46875 -26.515625 C 25.601562 -26.898438 29.925781 -27.742188 33.4375 -29.046875 L 34.125 -26.546875 C 31.195312 -25.484375 27.523438 -24.710938 23.109375 -24.234375 C 23.054688 -21.578125 23.007812 -19.570312 22.96875 -18.21875 Z M 18.65625 -14.953125 L 11.34375 -14.953125 L 11.34375 -12.03125 L 18.296875 -12.03125 L 18.296875 -9.671875 L 11.625 -9.671875 C 13.53125 -7.953125 15.351562 -6.140625 17.09375 -4.234375 L 15.5 -2.5 C 14.4375 -3.78125 13.050781 -5.273438 11.34375 -6.984375 L 11.34375 3 L 8.578125 3 L 8.578125 -6.8125 C 7.054688 -4.226562 5.140625 -1.894531 2.828125 0.1875 L 1.234375 -1.890625 C 4.128906 -4.328125 6.300781 -6.921875 7.75 -9.671875 L 1.921875 -9.671875 L 1.921875 -12.03125 L 8.578125 -12.03125 L 8.578125 -14.953125 L 1.921875 -14.953125 L 1.921875 -17.28125 L 6.015625 -17.28125 C 5.523438 -19.351562 4.929688 -21.476562 4.234375 -23.65625 L 2.171875 -23.65625 L 2.171875 -26 L 8.578125 -26 L 8.578125 -29.765625 L 11.34375 -29.765625 L 11.34375 -26 L 18.71875 -26 L 18.71875 -23.65625 L 16.40625 -23.65625 C 15.851562 -21.351562 15.140625 -19.226562 14.265625 -17.28125 L 18.65625 -17.28125 Z M 18.65625 -14.953125 "/></g></g></g><g fill="#343642" fill-opacity="1"><g transform="translate(252.325286, 186.004954)"><g><path d="M 6.046875 -17.125 L 6.046875 -12.640625 L 15.21875 -12.640625 L 15.21875 -17.125 Z M 6.046875 -19.296875 L 15.21875 -19.296875 L 15.21875 -23.46875 L 6.046875 -23.46875 Z M 10.828125 -8.046875 L 13.109375 -9.265625 C 15.546875 -5.796875 17.671875 -2.3125 19.484375 1.1875 L 17.203125 2.359375 C 16.523438 1.046875 15.8125 -0.222656 15.0625 -1.453125 C 10.457031 0.191406 5.921875 1.363281 1.453125 2.0625 L 1.09375 -0.390625 C 2.050781 -0.535156 2.773438 -0.660156 3.265625 -0.765625 L 3.265625 -25.828125 L 9.3125 -25.828125 L 9.3125 -29.546875 L 12.03125 -29.546875 L 12.03125 -25.828125 L 17.859375 -25.828125 L 17.859375 -10.359375 L 6.046875 -10.359375 L 6.046875 -1.34375 C 8.679688 -1.945312 11.265625 -2.671875 13.796875 -3.515625 C 12.753906 -5.203125 11.765625 -6.710938 10.828125 -8.046875 Z M 29.921875 -16.078125 C 31.410156 -14.867188 32.570312 -13.4375 33.40625 -11.78125 C 34.238281 -10.132812 34.65625 -8.414062 34.65625 -6.625 C 34.65625 -4.644531 34.1875 -3.207031 33.25 -2.3125 C 32.3125 -1.425781 30.847656 -0.984375 28.859375 -0.984375 L 25.890625 -0.984375 L 25.46875 -3.4375 L 27.59375 -3.4375 C 29.238281 -3.4375 30.363281 -3.671875 30.96875 -4.140625 C 31.570312 -4.617188 31.875 -5.472656 31.875 -6.703125 C 31.875 -9.910156 30.160156 -12.960938 26.734375 -15.859375 C 28.566406 -18.859375 30.160156 -22.179688 31.515625 -25.828125 L 23.46875 -25.828125 L 23.46875 2.890625 L 20.71875 2.890625 L 20.71875 -28.25 L 34.40625 -28.25 L 34.40625 -25.828125 C 33.175781 -22.398438 31.679688 -19.148438 29.921875 -16.078125 Z M 29.921875 -16.078125 "/></g></g></g><g fill="#343642" fill-opacity="1"><g transform="translate(521.444844, 186.004954)"><g><path d="M 8.546875 -17.28125 L 11.625 -17.28125 C 12.519531 -19.1875 13.269531 -21.3125 13.875 -23.65625 L 6.8125 -23.65625 C 7.414062 -21.75 7.992188 -19.625 8.546875 -17.28125 Z M 22.96875 -18.21875 L 34.875 -18.21875 L 34.875 -15.6875 L 31.046875 -15.6875 L 31.046875 2.6875 L 28.328125 2.6875 L 28.328125 -15.6875 L 22.8125 -15.6875 C 22.53125 -11.195312 21.984375 -7.585938 21.171875 -4.859375 C 20.359375 -2.128906 19.179688 0.332031 17.640625 2.53125 L 15.578125 0.71875 C 16.859375 -1.132812 17.820312 -3.046875 18.46875 -5.015625 C 19.125 -6.984375 19.617188 -9.65625 19.953125 -13.03125 C 20.296875 -16.414062 20.46875 -20.910156 20.46875 -26.515625 C 25.601562 -26.898438 29.925781 -27.742188 33.4375 -29.046875 L 34.125 -26.546875 C 31.195312 -25.484375 27.523438 -24.710938 23.109375 -24.234375 C 23.054688 -21.578125 23.007812 -19.570312 22.96875 -18.21875 Z M 18.65625 -14.953125 L 11.34375 -14.953125 L 11.34375 -12.03125 L 18.296875 -12.03125 L 18.296875 -9.671875 L 11.625 -9.671875 C 13.53125 -7.953125 15.351562 -6.140625 17.09375 -4.234375 L 15.5 -2.5 C 14.4375 -3.78125 13.050781 -5.273438 11.34375 -6.984375 L 11.34375 3 L 8.578125 3 L 8.578125 -6.8125 C 7.054688 -4.226562 5.140625 -1.894531 2.828125 0.1875 L 1.234375 -1.890625 C 4.128906 -4.328125 6.300781 -6.921875 7.75 -9.671875 L 1.921875 -9.671875 L 1.921875 -12.03125 L 8.578125 -12.03125 L 8.578125 -14.953125 L 1.921875 -14.953125 L 1.921875 -17.28125 L 6.015625 -17.28125 C 5.523438 -19.351562 4.929688 -21.476562 4.234375 -23.65625 L 2.171875 -23.65625 L 2.171875 -26 L 8.578125 -26 L 8.578125 -29.765625 L 11.34375 -29.765625 L 11.34375 -26 L 18.71875 -26 L 18.71875 -23.65625 L 16.40625 -23.65625 C 15.851562 -21.351562 15.140625 -19.226562 14.265625 -17.28125 L 18.65625 -17.28125 Z M 18.65625 -14.953125 "/></g></g></g><g fill="#343642" fill-opacity="1"><g transform="translate(557.66708, 186.004954)"><g><path d="M 32.3125 -9.3125 L 32.3125 -12.3125 L 24.453125 -12.3125 L 24.453125 -9.3125 Z M 5.140625 -11.8125 C 5.984375 -11.03125 6.863281 -10.125 7.78125 -9.09375 C 9.039062 -12.59375 9.707031 -16.5625 9.78125 -21 L 7.25 -21 C 6.6875 -17.769531 5.984375 -14.707031 5.140625 -11.8125 Z M 29.15625 0.984375 C 28.550781 0.984375 27.460938 0.929688 25.890625 0.828125 L 25.859375 -1.59375 C 27.085938 -1.5 28.003906 -1.453125 28.609375 -1.453125 C 29.335938 -1.453125 29.757812 -1.5 29.875 -1.59375 C 30 -1.6875 30.0625 -2 30.0625 -2.53125 L 30.0625 -7.140625 L 24.453125 -7.140625 L 24.453125 3.515625 L 21.65625 3.515625 L 21.65625 -7.140625 L 16.40625 -7.140625 L 16.40625 1.09375 L 13.765625 1.09375 L 13.765625 -7.71875 L 11.515625 -7.71875 L 11.515625 -13.625 C 11.078125 -11.15625 10.4375 -8.867188 9.59375 -6.765625 C 10.726562 -5.273438 11.828125 -3.613281 12.890625 -1.78125 L 10.96875 -0.03125 C 10.195312 -1.40625 9.34375 -2.796875 8.40625 -4.203125 C 6.832031 -1.203125 4.742188 1.378906 2.140625 3.546875 L 0.9375 1.265625 C 3.351562 -0.878906 5.273438 -3.472656 6.703125 -6.515625 C 5.859375 -7.554688 5.0625 -8.453125 4.3125 -9.203125 C 4.019531 -8.378906 3.789062 -7.773438 3.625 -7.390625 L 1.59375 -9.265625 C 2.875 -12.910156 3.875 -16.820312 4.59375 -21 L 1.15625 -21 L 1.15625 -23.4375 L 5 -23.4375 C 5.289062 -25.414062 5.546875 -27.429688 5.765625 -29.484375 L 8.328125 -29.375 C 8.160156 -27.46875 7.921875 -25.488281 7.609375 -23.4375 L 12.234375 -23.4375 L 12.234375 -22.28125 C 12.234375 -19.550781 12.054688 -16.988281 11.703125 -14.59375 L 34.953125 -14.59375 L 34.953125 -7.71875 L 32.703125 -7.71875 L 32.703125 -2.53125 C 32.703125 -0.894531 32.515625 0.0976562 32.140625 0.453125 C 31.765625 0.804688 30.769531 0.984375 29.15625 0.984375 Z M 30.34375 -18.828125 L 30.34375 -21.40625 L 14.34375 -21.40625 L 14.34375 -23.46875 L 30.34375 -23.46875 L 30.34375 -25.96875 L 13.625 -25.96875 L 13.625 -28.328125 L 33.21875 -28.328125 L 33.21875 -16.65625 L 13.625 -16.65625 L 13.625 -18.828125 Z M 21.65625 -12.3125 L 14.203125 -12.3125 L 14.203125 -9.3125 L 21.65625 -9.3125 Z M 21.65625 -12.3125 "/></g></g></g><g fill="#343642" fill-opacity="1"><g transform="translate(174.69918, 294.201675)"><g><path d="M 38.578125 -48.28125 L 60.78125 -48.28125 C 56.738281 -51.75 53.039062 -55.269531 49.6875 -58.84375 C 45.957031 -54.851562 42.253906 -51.332031 38.578125 -48.28125 Z M 52.9375 -63.265625 C 59.71875 -56.117188 67.273438 -49.753906 75.609375 -44.171875 L 73.75 -38.578125 C 69.1875 -41.628906 65.378906 -44.425781 62.328125 -46.96875 L 62.328125 -43.234375 L 37.03125 -43.234375 L 37.03125 -46.96875 C 33.5625 -44.113281 29.9375 -41.445312 26.15625 -38.96875 L 26.15625 -36.09375 L 19.015625 -36.09375 C 21.347656 -31.539062 24.398438 -25.410156 28.171875 -17.703125 L 23.828125 -14.90625 C 21.609375 -19.925781 19.742188 -24.09375 18.234375 -27.40625 L 18.234375 6.75 L 12.578125 6.75 L 12.578125 -22.28125 C 10.710938 -16.175781 8.28125 -10.613281 5.28125 -5.59375 L 2.015625 -11.40625 C 6.984375 -19.789062 10.375 -28.019531 12.1875 -36.09375 L 3.5 -36.09375 L 3.5 -41.296875 L 12.578125 -41.296875 L 12.578125 -53.953125 C 9.160156 -53.429688 6.546875 -53.066406 4.734375 -52.859375 L 4.1875 -57.828125 C 12.15625 -58.765625 19.609375 -60.265625 26.546875 -62.328125 L 27.9375 -57.671875 C 25.195312 -56.742188 21.960938 -55.863281 18.234375 -55.03125 L 18.234375 -41.296875 L 24.765625 -41.296875 L 23.75 -44.09375 C 32.082031 -49.675781 39.640625 -56.066406 46.421875 -63.265625 Z M 57.75 -15.90625 L 53.09375 -19.5625 C 56.769531 -23.5 59.953125 -27.585938 62.640625 -31.828125 L 30.046875 -31.828125 L 30.046875 -37.03125 L 69.625 -37.03125 L 69.625 -31.828125 C 66.363281 -26.179688 62.40625 -20.875 57.75 -15.90625 Z M 20.71875 1.625 C 23.976562 -3.445312 26.539062 -9.523438 28.40625 -16.609375 L 33.765625 -15.21875 C 31.953125 -7.550781 29.1875 -0.925781 25.46875 4.65625 Z M 65.359375 -7.0625 C 65.253906 -4.632812 65.132812 -2.769531 65 -1.46875 C 64.875 -0.175781 64.578125 1.0625 64.109375 2.25 C 63.648438 3.4375 63.160156 4.25 62.640625 4.6875 C 62.117188 5.132812 61.171875 5.535156 59.796875 5.890625 C 58.429688 6.253906 57.050781 6.460938 55.65625 6.515625 C 54.257812 6.566406 52.191406 6.59375 49.453125 6.59375 C 47.117188 6.59375 45.34375 6.566406 44.125 6.515625 C 42.914062 6.460938 41.726562 6.296875 40.5625 6.015625 C 39.394531 5.734375 38.578125 5.410156 38.109375 5.046875 C 37.648438 4.679688 37.222656 4.046875 36.828125 3.140625 C 36.441406 2.234375 36.222656 1.265625 36.171875 0.234375 C 36.117188 -0.796875 36.09375 -2.242188 36.09375 -4.109375 L 36.09375 -17.3125 L 42.078125 -17.3125 L 42.078125 -4.8125 C 42.078125 -1.601562 42.382812 0.28125 43 0.84375 C 43.625 1.414062 45.773438 1.703125 49.453125 1.703125 C 51.410156 1.703125 52.789062 1.703125 53.59375 1.703125 C 54.394531 1.703125 55.273438 1.5625 56.234375 1.28125 C 57.191406 1 57.785156 0.738281 58.015625 0.5 C 58.253906 0.269531 58.539062 -0.320312 58.875 -1.28125 C 59.21875 -2.238281 59.398438 -3.117188 59.421875 -3.921875 C 59.441406 -4.722656 59.503906 -6.109375 59.609375 -8.078125 Z M 54.796875 -14.515625 L 51.3125 -10.40625 C 47.84375 -13.875 43.804688 -17.265625 39.203125 -20.578125 L 42.453125 -24.609375 C 47.316406 -21.140625 51.429688 -17.773438 54.796875 -14.515625 Z M 62.015625 -15.21875 L 67.140625 -17.46875 C 70.453125 -11.3125 73.378906 -4.660156 75.921875 2.484375 L 70.875 4.734375 C 68.226562 -2.710938 65.273438 -9.363281 62.015625 -15.21875 Z M 62.015625 -15.21875 "/></g></g></g><g fill="#343642" fill-opacity="1"><g transform="translate(252.329132, 294.201675)"><g><path d="M 18.625 -2.484375 L 59 -2.484375 L 59 -16.921875 L 18.625 -16.921875 Z M 13.578125 -34 L 31.59375 -34 L 31.59375 -45.40625 L 13.578125 -45.40625 Z M 55.5 -38.03125 C 59.644531 -42.019531 62.441406 -47.066406 63.890625 -53.171875 L 48.671875 -53.171875 C 48.515625 -52.859375 47.816406 -51.4375 46.578125 -48.90625 L 50.296875 -49.984375 C 51.078125 -45.585938 52.8125 -41.601562 55.5 -38.03125 Z M 59.3125 -33.921875 C 63.445312 -30.191406 68.75 -27.191406 75.21875 -24.921875 L 73.28125 -19.796875 C 65.769531 -22.484375 59.632812 -26 54.875 -30.34375 C 50.6875 -27.445312 45.488281 -24.992188 39.28125 -22.984375 L 36.640625 -27.875 C 42.378906 -29.625 47.191406 -31.820312 51.078125 -34.46875 C 48.335938 -37.988281 46.367188 -41.972656 45.171875 -46.421875 C 43.566406 -43.734375 42.117188 -41.585938 40.828125 -39.984375 L 37.109375 -43.234375 L 37.109375 -29.34375 L 13.28125 -29.34375 C 12.914062 -26.238281 12.210938 -23.484375 11.171875 -21.078125 C 10.140625 -18.671875 8.5625 -16.195312 6.4375 -13.65625 L 2.09375 -18.9375 C 5.875 -23.382812 7.765625 -29.671875 7.765625 -37.796875 L 7.765625 -50.0625 L 37.109375 -50.0625 L 37.109375 -44.796875 C 41.085938 -50.066406 44.191406 -56.507812 46.421875 -64.125 L 52.09375 -63.34375 C 51.675781 -61.425781 51.179688 -59.71875 50.609375 -58.21875 L 73.59375 -58.21875 L 73.59375 -53.171875 L 69.625 -53.171875 C 67.96875 -45.253906 64.53125 -38.835938 59.3125 -33.921875 Z M 65.046875 -21.890625 L 65.046875 5.671875 L 59 5.671875 L 59 2.328125 L 18.625 2.328125 L 18.625 5.671875 L 12.578125 5.671875 L 12.578125 -21.890625 Z M 4.890625 -54.71875 L 4.890625 -59.765625 L 38.96875 -59.765625 L 38.96875 -54.71875 Z M 4.890625 -54.71875 "/></g></g></g><g fill="#343642" fill-opacity="1"><g transform="translate(490.555873, 294.201675)"><g><path d="M 55.65625 -57.984375 L 73.515625 -57.984375 L 73.515625 -52.9375 L 55.65625 -52.9375 L 55.65625 -48.359375 L 49.6875 -48.359375 L 49.6875 -52.9375 L 27.9375 -52.9375 L 27.9375 -47.578125 L 21.96875 -47.578125 L 21.96875 -52.9375 L 4.109375 -52.9375 L 4.109375 -57.984375 L 21.96875 -57.984375 L 21.96875 -63.890625 L 27.9375 -63.890625 L 27.9375 -57.984375 L 49.6875 -57.984375 L 49.6875 -63.890625 L 55.65625 -63.890625 Z M 41.53125 -30.046875 L 41.53125 -25 L 28.796875 -25 C 33.660156 -18.9375 38.140625 -13.113281 42.234375 -7.53125 L 38.1875 -3.953125 C 34.769531 -9.023438 30.707031 -14.691406 26 -20.953125 L 26 6.359375 L 20.03125 6.359375 L 20.03125 -19.71875 C 16.71875 -12.363281 12.289062 -5.867188 6.75 -0.234375 L 3.421875 -5.125 C 9.941406 -11.382812 14.804688 -18.007812 18.015625 -25 L 5.046875 -25 L 5.046875 -30.046875 L 20.03125 -30.046875 L 20.03125 -39.515625 C 16.09375 -39.046875 11.585938 -38.628906 6.515625 -38.265625 L 6.0625 -43.234375 C 17.03125 -44.015625 28.15625 -45.4375 39.4375 -47.5 L 40.828125 -42.6875 C 36.796875 -41.863281 31.851562 -41.0625 26 -40.28125 L 26 -30.046875 Z M 45.796875 -6.0625 L 45.796875 -43.703125 L 51.625 -43.703125 L 51.625 -6.0625 Z M 64.96875 -2.09375 L 64.96875 -46.421875 L 70.875 -46.421875 L 70.875 -2.171875 C 70.875 1.453125 70.394531 3.726562 69.4375 4.65625 C 68.476562 5.59375 66.289062 6.0625 62.875 6.0625 C 60.238281 6.0625 56.691406 5.929688 52.234375 5.671875 L 52.015625 0.546875 C 56.046875 0.804688 59.203125 0.9375 61.484375 0.9375 C 63.140625 0.9375 64.132812 0.789062 64.46875 0.5 C 64.800781 0.21875 64.96875 -0.644531 64.96875 -2.09375 Z M 64.96875 -2.09375 "/></g></g></g><g fill="#343642" fill-opacity="1"><g transform="translate(568.185824, 294.201675)"><g><path d="M 35.703125 -49.0625 L 16.296875 -49.0625 L 16.296875 -28.171875 L 35.625 -28.171875 C 35.675781 -28.640625 35.703125 -29.34375 35.703125 -30.28125 Z M 41.921875 -30.28125 C 41.921875 -29.34375 41.945312 -28.640625 42 -28.171875 L 61.328125 -28.171875 L 61.328125 -49.0625 L 41.921875 -49.0625 Z M 35.703125 -63.421875 L 41.921875 -63.421875 L 41.921875 -54.34375 L 67.140625 -54.34375 L 67.140625 -28.171875 L 74.75 -28.171875 L 74.75 -23.046875 L 43.078125 -23.046875 C 44.785156 -17.984375 48.148438 -13.394531 53.171875 -9.28125 C 58.191406 -5.164062 64.609375 -1.835938 72.421875 0.703125 L 70.09375 5.90625 C 62.90625 3.625 56.578125 0.296875 51.109375 -4.078125 C 45.648438 -8.453125 41.65625 -13.25 39.125 -18.46875 C 36.53125 -13.25 32.453125 -8.453125 26.890625 -4.078125 C 21.328125 0.296875 14.875 3.625 7.53125 5.90625 L 5.203125 0.703125 C 13.066406 -1.835938 19.492188 -5.164062 24.484375 -9.28125 C 29.484375 -13.394531 32.835938 -17.984375 34.546875 -23.046875 L 2.875 -23.046875 L 2.875 -28.171875 L 10.484375 -28.171875 L 10.484375 -54.34375 L 35.703125 -54.34375 Z M 35.703125 -63.421875 "/></g></g></g></svg>